<?xml version="1.0" encoding="utf-8"?>
<!-- Generator: Adobe Illustrator 16.0.3, SVG Export Plug-In . SVG Version: 6.00 Build 0)  -->
<!DOCTYPE svg PUBLIC "-//W3C//DTD SVG 1.1//EN" "http://www.w3.org/Graphics/SVG/1.1/DTD/svg11.dtd">
<svg version="1.1" id="Capa_1" xmlns="http://www.w3.org/2000/svg" xmlns:xlink="http://www.w3.org/1999/xlink" x="0px" y="0px"
	 width="150px" height="150px" viewBox="0 0 150 150" enable-background="new 0 0 150 150" xml:space="preserve">
<g>
	<g>
		<path fill="#FFFFFF" d="M91.562,105.969H57.716c-1.905,0-3.449-1.545-3.449-3.449V47.318c0-1.905,1.544-3.45,3.449-3.45h33.846
			c1.904,0,3.449,1.545,3.449,3.45v55.202C95.011,104.424,93.466,105.969,91.562,105.969z"/>
		<path fill="#2D2D2D" d="M91.562,106.063H57.716c-1.954,0-3.543-1.59-3.543-3.543V47.318c0-1.954,1.589-3.543,3.543-3.543h33.846
			c1.953,0,3.543,1.59,3.543,3.543v55.202C95.104,104.473,93.515,106.063,91.562,106.063z M57.716,43.962
			c-1.851,0-3.356,1.505-3.356,3.356v55.202c0,1.85,1.506,3.355,3.356,3.355h33.846c1.851,0,3.355-1.506,3.355-3.355V47.318
			c0-1.851-1.505-3.356-3.355-3.356H57.716z"/>
	</g>
	<g>
		<g>
			<path fill="#D6142B" d="M87.605,70.947c0.569,1.413,0.757,2.777,0.8,4.25c0.051,1.764-0.151,2.485-0.101,4.25
				c0.013,0.428-1.74,2.219-2.026,2.592c-0.491,0.643-0.882,1.193-1.476,1.234c-3.601,0.248-6.433,1.086-10.047,0.977
				c-3.351-0.1-5.529-0.863-8.848-0.506c-0.209,0.023-0.129,0.275-0.285,0.172c-1.697-1.127-4.415-2.217-5.117-4.068
				c-1.237-3.26-2.164-3.715-1.401-7.051c0.273-1.188,1.601-3.75,5.4-5.15c1.772-0.653,3.546-2.116,5.733-2.334
				c2.867-0.287,5.807-0.185,8.624,0.301c2.35,0.405,6.208,2.112,7.606,3.553C86.99,69.703,87.351,70.315,87.605,70.947z"/>
		</g>
		<g>
			<path fill="#D6142B" d="M61.276,79.061c-0.569-1.414-0.757-2.778-0.799-4.251c-0.051-1.764,0.15-2.486,0.1-4.25
				c-0.013-0.428,1.741-2.218,2.026-2.592c0.492-0.643,0.882-1.193,1.476-1.234c3.601-0.249,6.433-1.086,10.047-0.978
				c3.351,0.101,5.53,0.864,8.849,0.506c0.208-0.022,0.129-0.275,0.285-0.171c1.697,1.127,4.415,2.218,5.117,4.069
				c1.236,3.259,2.164,3.714,1.4,7.049c-0.271,1.189-1.601,3.75-5.4,5.15c-1.771,0.654-3.546,2.115-5.733,2.336
				c-2.867,0.287-5.806,0.184-8.623-0.303c-2.351-0.404-6.209-2.111-7.607-3.553C61.893,80.305,61.532,79.691,61.276,79.061z"/>
		</g>
		<path fill="#0F0A35" d="M59.735,71.289c0.225-1.8,1.233-3.19,3.225-4.575c1.725-1.2,3.748-1.455,4.35-1.275
			c1.843,0.551,1.656,2.708,3.401,3.516c1.824,0.845,4.833,1.629,6.574,2.634c4.526,2.613,7.641,4.517,12.75,5.625
			c-1.179,3.155-3.273,6.423-6.627,6.726c-1.705,0.152-3.147-1.094-4.773-1.625C75.973,81.445,59.664,71.856,59.735,71.289z"/>
		<g>
			<path fill="#0F0A35" d="M73.545,44.594c0.133-0.041,0.275,0.042,0.36,0.153c0.178,0.231,0.173,0.551,0.159,0.843
				c-0.001,0.032-0.004,0.067-0.028,0.088c-0.019,0.016-0.045,0.02-0.069,0.021c-0.172,0.013-0.345,0.003-0.513-0.03
				c-0.08-0.197-0.124-0.409-0.13-0.622C73.319,44.867,73.372,44.647,73.545,44.594z"/>
		</g>
		<g>
			<path fill="#990F28" d="M66.341,65.906c-0.569,0.458-1.221,0.806-1.776,1.279c-0.375,0.318-0.712,0.716-0.897,1.165
				c-0.104,0.255,0.145,0.519,0.403,0.423c0.357-0.132,0.729-0.18,1.044,0.01c0.402,0.245,0.513,0.766,0.734,1.181
				c0.45,0.844,1.52,1.3,2.44,1.042c1.005-0.282,1.76-1.287,2.804-1.319c1.239-0.037,2.202,1.33,3.44,1.257
				c1.065-0.063,1.829-1.172,2.891-1.295c1.18-0.136,2.341,0.997,3.45,0.58c0.157-0.06,0.298-0.161,0.421-0.277
				c1.378-1.293,0.943-2.005,2.781-1.552c0.038,0.009,0.081,0.007,0.115-0.012c0.781-0.462-1.895-2.527-3.104-3.563
				c-1.122-0.961-2.03-2.254-2.219-3.719c-0.109-0.841-0.006-1.787-0.542-2.443c-0.066-0.082-0.144-0.157-0.232-0.212
				c-0.489-0.298-1.089,0.099-1.56,0.426c-1.599,1.115-3.561,1.563-5.483,1.884c-0.853,0.142-1.715,0.265-2.521,0.581
				c-0.151,0.059-0.279,0.179-0.329,0.334c-0.08,0.247,0.132,0.318,0.199,0.475c0.039,0.09,0.024,0.193,0.007,0.29
				C68.158,63.792,67.411,65.045,66.341,65.906z"/>
		</g>
		<g>
			<path fill="#F5D6A1" d="M71.051,49.927c-0.769,0.495-1.933,1.156-2.25,2.013s-0.525,1.759-0.948,2.569
				c-0.396,0.76-0.967,1.412-1.503,2.081c-0.276,0.346-0.553,0.829-0.309,1.198c0.206,0.312,0.656,0.325,1.023,0.258
				s0.766-0.177,1.098-0.005c-0.082,1.001-0.124,1.925-0.205,2.927c-0.034,0.417-0.066,0.85,0.075,1.244
				c0.311,0.859,1.326,1.237,2.237,1.295c1.952,0.124,3.862-0.732,5.396-1.946c0.371-0.294,0.727-0.611,1.031-0.974
				c0.535-0.639,0.896-1.402,1.251-2.155c0.174-0.37,0.35-0.744,0.438-1.142c0.103-0.455,0.09-0.928,0.056-1.393
				c-0.081-1.121-0.287-2.246-0.753-3.269c-0.467-1.023-1.209-1.942-2.192-2.488c-0.555-0.308-1.173-0.491-1.799-0.591
				C72.606,49.373,71.979,49.327,71.051,49.927z"/>
		</g>
		<g>
			<path fill="#F31033" d="M73.095,45.048c0.457-0.048,0.921,0.01,1.361,0.139c0.953,0.279,1.806,0.906,2.335,1.747
				c0.53,0.84,0.728,1.89,0.514,2.86c-2.425-0.513-4.96-0.5-7.38,0.037c-0.118-1.058,0.054-2.166,0.605-3.076
				C71.081,45.845,72.036,45.159,73.095,45.048z"/>
		</g>
		<g>
			<path fill="#0F0A35" d="M75.522,54.101c0,0-0.128,0.026-0.232,0.019c-1.236-0.085-2.931-0.346-4.078-0.068
				c-0.144,0.035-0.31,0.032-0.416,0.083c-0.076,0.037-0.048,0.181-0.123,0.143c-0.158-0.079-0.311-1.351-0.287-1.978
				c0.003-0.057,0.04-0.11,0.095-0.126c0.463-0.14,1.14-0.114,1.602-0.083c0.58,0.04,1.404,0.205,1.805,0.422
				C74.335,52.755,75.06,53.132,75.522,54.101z"/>
		</g>
		<g>
			<path fill="#FFFFFF" d="M70.627,54.233c-0.006-0.013-0.002-0.027,0.005-0.038c0.259-0.381,0.607-0.737,1.489-0.971
				c1.226-0.324,2.539-0.051,3.401,0.877c-1.278,0.668-2.176,0.744-4.257,0.414C71.057,54.482,70.695,54.428,70.627,54.233z"/>
		</g>
		<g>
			<path fill="#D6142B" d="M73.742,59.311c0.07-0.041-0.146-0.355,0.343-0.448c0.218-0.042,0.34,0.032,0.381,0.25
				c0.053,0.276-0.211,0.747-0.579,0.974c-0.368,0.228-0.687,0.36-1.118,0.337c-1.191-0.063-2.358-0.526-3.269-1.297
				c-0.315-0.269-0.97-0.805-1.133-0.751c-0.16,0.052-0.471,0.458-1.067,1.238c-0.364,0.475-0.956,1.058-1.555,1.041
				c-0.293-0.009-0.521-0.168-0.646-0.435c-0.122-0.267-0.083-0.57,0.158-0.737c0.343-0.237,0.487,0.013,0.619,0.066
				c0.082,0.033,0.034-0.229-0.013-0.303c-0.329-0.514-0.94-0.359-1.291-0.118c-0.35,0.24-0.497,0.637-0.58,1.054
				c-0.063,0.328-0.017,0.718,0.1,1.032c0.25,0.676,1.078,0.807,1.798,0.838c0.908,0.04,1.738-0.46,2.028-1.12
				c0.54-1.225,0.444-1.376,0.58-1.356c0.092,0.013,0.233,0.935,0.435,1.277c1.001,1.7,3.288,1.562,4.308,1.305
				c1.021-0.257,1.738-0.873,2.107-1.858c0.356-0.948,0.057-1.461-0.342-1.936c-0.248-0.296-0.658-0.422-1.041-0.369
				c-0.276,0.039-0.517,0.303-0.554,0.58C73.347,59.074,73.649,59.363,73.742,59.311z"/>
		</g>
		<g>
			<path fill="#E11540" d="M79.024,52.104c0.328,0.449,0.968,1.595,1.29,2.047c0.626,0.875,0.876,1.879,1.837,2.362
				c0.465,0.233,1.071,0.364,1.58,0.474s0.852,0.345,1.089,0.808c0.28,0.543,0.379,1.075,0.053,1.967
				c-0.128,0.352-0.737,1.089-2.43,1.262c-0.463,0.046-1.156,0.108-2.014,0.056c-1.064-0.066-0.988-0.088-2.055-0.088
				c-0.738,0-0.738-0.035-1.02-0.703c-0.189-0.449-0.485-2.121-0.702-2.88c-0.078-0.273-1.024-4.254-1.184-4.84
				c-0.126-0.46-0.251-0.92-0.377-1.379c-0.069-0.252-0.136-0.531-0.022-0.766c0.169-0.354,0.635-0.421,1.027-0.441
				c0.271-0.015,0.543-0.029,0.814-0.043c0.109-0.005,0.222-0.011,0.327,0.022c0.128,0.04,0.059,0.343,0.151,0.439
				C78.13,51.157,78.401,51.25,79.024,52.104z"/>
		</g>
		<g>
			<path fill="#0F0A35" d="M72.832,54.494c0.736,0.044,0.752-0.518,0.746-0.702c-0.009-0.271-0.254-0.502-0.523-0.526
				c-0.309-0.027-0.618,0.208-0.673,0.513C72.326,54.083,72.523,54.476,72.832,54.494z"/>
		</g>
		<g>
			<defs>
				<path id="SVGID_1_" d="M73.742,59.311c0.07-0.041-0.146-0.355,0.343-0.448c0.218-0.042,0.34,0.032,0.381,0.25
					c0.053,0.276-0.211,0.747-0.579,0.974c-0.368,0.228-0.687,0.36-1.118,0.337c-1.191-0.063-2.358-0.526-3.269-1.297
					c-0.315-0.269-0.97-0.805-1.133-0.751c-0.16,0.052-0.471,0.458-1.067,1.238c-0.364,0.475-0.956,1.058-1.555,1.041
					c-0.293-0.009-0.521-0.168-0.646-0.435c-0.122-0.267-0.083-0.57,0.158-0.737c0.343-0.237,0.487,0.013,0.619,0.066
					c0.082,0.033,0.034-0.229-0.013-0.303c-0.329-0.514-0.94-0.359-1.291-0.118c-0.35,0.24-0.497,0.637-0.58,1.054
					c-0.063,0.328-0.017,0.718,0.1,1.032c0.25,0.676,1.078,0.807,1.798,0.838c0.908,0.04,1.738-0.46,2.028-1.12
					c0.54-1.225,0.444-1.376,0.58-1.356c0.092,0.013,0.233,0.935,0.435,1.277c1.001,1.7,3.288,1.562,4.308,1.305
					c1.021-0.257,1.738-0.873,2.107-1.858c0.356-0.948,0.057-1.461-0.342-1.936c-0.248-0.296-0.658-0.422-1.041-0.369
					c-0.276,0.039-0.517,0.303-0.554,0.58C73.347,59.074,73.649,59.363,73.742,59.311z"/>
			</defs>
			<clipPath id="SVGID_2_">
				<use xlink:href="#SVGID_1_"  overflow="visible"/>
			</clipPath>
			<g clip-path="url(#SVGID_2_)">
				<g>
					<path fill="#0F0A35" d="M68.894,57.984c-0.512-0.246-0.881,0.275-1.063,0.694c-0.113,0.257-0.223,0.535-0.168,0.822
						c0.156,0.827,0.393,1.344,0.024,2.174c-0.019,0.041,0.029,0.084,0.064,0.05c0.421-0.41,0.531-0.838,0.453-1.411
						c-0.054-0.395-0.281-0.712-0.27-1.125c0.016-0.569,0.311-1.124,0.946-1.155C68.904,58.031,68.918,57.996,68.894,57.984
						L68.894,57.984z"/>
				</g>
			</g>
			<g clip-path="url(#SVGID_2_)">
				<g>
					<path fill="#0F0A35" d="M68.731,58.322c0.501,0.957-0.142,1.382-0.151,2.291c-0.006,0.606,0.258,1.286,0.716,1.694
						c0.033,0.029,0.092,0.001,0.077-0.045c-0.113-0.379-0.265-0.747-0.383-1.125c-0.178-0.563,0.168-1.146,0.305-1.674
						c0.135-0.52-0.094-0.9-0.483-1.203C68.767,58.226,68.703,58.267,68.731,58.322L68.731,58.322z"/>
				</g>
			</g>
			<g clip-path="url(#SVGID_2_)">
				<g>
					<path fill="#0F0A35" d="M67.341,58.968c-0.496,0.226-0.463,0.858-0.397,1.32c0.076,0.546,0.181,1.09-0.221,1.544
						c-0.29,0.33-0.732,0.267-1.086,0.451c-0.097,0.05-0.056,0.171,0.026,0.205c0.625,0.263,1.288-0.32,1.533-0.854
						c0.15-0.326,0.124-0.696,0.08-1.041c-0.078-0.599-0.129-0.976,0.169-1.521C67.484,59.001,67.408,58.937,67.341,58.968
						L67.341,58.968z"/>
				</g>
			</g>
			<g clip-path="url(#SVGID_2_)">
				<g>
					<path fill="#0F0A35" d="M66.61,59.613c-0.411,0.214-0.494,0.621-0.545,1.059c-0.046,0.407-0.105,0.751-0.321,1.11
						c-0.234,0.391-0.645,0.577-0.985,0.85c-0.045,0.036,0.005,0.1,0.053,0.089c0.568-0.119,1.022-0.627,1.283-1.124
						c0.311-0.591,0.087-1.384,0.59-1.888C66.735,59.659,66.672,59.582,66.61,59.613L66.61,59.613z"/>
				</g>
			</g>
			<g clip-path="url(#SVGID_2_)">
				<g>
					<path fill="#0F0A35" d="M65.982,59.868c-0.538-0.065-0.668,0.743-0.844,1.093c-0.339,0.676-1.114,0.787-1.758,0.926
						c-0.058,0.013-0.068,0.085-0.032,0.124c0.352,0.384,1.145-0.076,1.479-0.286c0.246-0.154,0.432-0.358,0.577-0.608
						c0.177-0.306,0.218-1.001,0.595-1.127C66.068,59.966,66.05,59.876,65.982,59.868L65.982,59.868z"/>
				</g>
			</g>
			<g clip-path="url(#SVGID_2_)">
				<g>
					<path fill="#0F0A35" d="M65.421,59.619c-0.311,0.528-0.887,0.594-1.351,0.929c-0.313,0.225-0.705,0.664-0.707,1.068
						c0,0.056,0.07,0.085,0.109,0.045c0.193-0.197,0.291-0.471,0.473-0.684c0.206-0.242,0.475-0.388,0.761-0.511
						c0.367-0.158,0.779-0.382,0.791-0.827C65.498,59.599,65.44,59.584,65.421,59.619L65.421,59.619z"/>
				</g>
			</g>
			<g clip-path="url(#SVGID_2_)">
				<g>
					<path fill="#0F0A35" d="M66.022,59.443c-0.401-0.358-0.927-0.516-1.447-0.285c-0.713,0.316-0.962,1.024-1.607,1.419
						c-0.063,0.039-0.036,0.137,0.038,0.138c0.387,0.006,0.627-0.262,0.848-0.554c0.587-0.775,1.193-0.954,2.15-0.689
						C66.021,59.478,66.035,59.455,66.022,59.443L66.022,59.443z"/>
				</g>
			</g>
			<g clip-path="url(#SVGID_2_)">
				<g>
					<path fill="#0F0A35" d="M69.525,58.76c0.152,0.096,0.229,0.649,0.281,0.816c0.177,0.569,0.041,1.071-0.106,1.621
						c-0.13,0.485,0.129,0.849,0.443,1.185c0.056,0.06,0.143-0.003,0.129-0.075c-0.095-0.468-0.338-0.731-0.189-1.255
						c0.102-0.358,0.19-0.697,0.131-1.073c-0.06-0.383-0.146-1.249-0.627-1.363C69.499,58.594,69.45,58.711,69.525,58.76
						L69.525,58.76z"/>
				</g>
			</g>
			<g clip-path="url(#SVGID_2_)">
				<g>
					<path fill="#0F0A35" d="M70.632,59.496c0.55,0.576,0.101,1.584,0.279,2.301c0.13,0.522,0.6,1.082,1.137,1.186
						c0.066,0.013,0.125-0.053,0.09-0.117c-0.168-0.299-0.447-0.51-0.652-0.787c-0.259-0.349-0.286-0.788-0.282-1.205
						c0.006-0.557-0.06-1.073-0.546-1.411C70.637,59.451,70.616,59.48,70.632,59.496L70.632,59.496z"/>
				</g>
			</g>
			<g clip-path="url(#SVGID_2_)">
				<g>
					<path fill="#0F0A35" d="M71.637,59.767c0.306,0.644,0.033,1.358,0.312,2.018c0.176,0.417,0.613,0.941,1.054,1.074
						c0.04,0.012,0.087-0.03,0.072-0.072c-0.205-0.553-0.778-0.854-0.964-1.449c-0.188-0.604,0.029-1.092-0.406-1.623
						C71.671,59.674,71.616,59.726,71.637,59.767L71.637,59.767z"/>
				</g>
			</g>
			<g clip-path="url(#SVGID_2_)">
				<g>
					<path fill="#0F0A35" d="M72.385,59.783c0.566,0.042,0.448,1.175,0.564,1.581c0.146,0.514,0.547,1.142,1.122,1.198
						c0.057,0.006,0.097-0.069,0.066-0.116c-0.226-0.339-0.58-0.552-0.808-0.902c-0.188-0.288-0.23-0.601-0.29-0.927
						c-0.064-0.357-0.213-0.906-0.655-0.91C72.335,59.707,72.336,59.78,72.385,59.783L72.385,59.783z"/>
				</g>
			</g>
			<g clip-path="url(#SVGID_2_)">
				<g>
					<path fill="#0F0A35" d="M73.364,59.677c0.389,0.171,0.495,0.976,0.696,1.337c0.238,0.429,0.61,0.903,1.144,0.895
						c0.075-0.001,0.103-0.087,0.058-0.14c-0.184-0.218-0.414-0.385-0.61-0.592c-0.214-0.225-0.359-0.511-0.499-0.786
						c-0.154-0.306-0.366-0.782-0.767-0.795C73.345,59.595,73.324,59.66,73.364,59.677L73.364,59.677z"/>
				</g>
			</g>
			<g clip-path="url(#SVGID_2_)">
				<g>
					<path fill="#0F0A35" d="M73.852,57.843c-0.263,0.579-0.108,1.033,0.26,1.537c0.226,0.31,0.569,0.536,0.827,0.821
						c0.399,0.444,0.345,0.943,0.496,1.465c0.02,0.071,0.128,0.093,0.163,0.021c0.255-0.513,0.031-1.07-0.269-1.524
						c-0.552-0.834-1.527-1.13-1.459-2.315C73.871,57.838,73.855,57.834,73.852,57.843L73.852,57.843z"/>
				</g>
			</g>
			<g clip-path="url(#SVGID_2_)">
				<g>
					<path fill="#0F0A35" d="M74.436,57.664c-0.058,0.568,0.151,0.925,0.542,1.336c0.313,0.33,0.686,0.472,0.87,0.926
						c0.105,0.258,0.118,0.476,0.321,0.672c0.054,0.053,0.154,0.017,0.152-0.063c-0.014-0.439-0.18-0.87-0.458-1.207
						c-0.48-0.581-1.208-0.837-1.367-1.673C74.489,57.619,74.439,57.632,74.436,57.664L74.436,57.664z"/>
				</g>
			</g>
		</g>
		<g>
			<defs>
				<path id="SVGID_3_" d="M79.024,52.104c0.328,0.449,0.968,1.595,1.29,2.047c0.626,0.875,0.876,1.879,1.837,2.362
					c0.465,0.233,1.071,0.364,1.58,0.474s0.852,0.345,1.089,0.808c0.28,0.543,0.379,1.075,0.053,1.967
					c-0.128,0.352-0.737,1.089-2.43,1.262c-0.463,0.046-1.156,0.108-2.014,0.056c-1.064-0.066-0.988-0.088-2.055-0.088
					c-0.738,0-0.738-0.035-1.02-0.703c-0.189-0.449-0.485-2.121-0.702-2.88c-0.078-0.273-1.024-4.254-1.184-4.84
					c-0.126-0.46-0.251-0.92-0.377-1.379c-0.069-0.252-0.136-0.531-0.022-0.766c0.169-0.354,0.635-0.421,1.027-0.441
					c0.271-0.015,0.543-0.029,0.814-0.043c0.109-0.005,0.222-0.011,0.327,0.022c0.128,0.04,0.059,0.343,0.151,0.439
					C78.13,51.157,78.401,51.25,79.024,52.104z"/>
			</defs>
			<clipPath id="SVGID_4_">
				<use xlink:href="#SVGID_3_"  overflow="visible"/>
			</clipPath>
			<g clip-path="url(#SVGID_4_)">
				<g>
					<path fill="#0F0A35" d="M75.365,50.458c1.057,0.806,0.526,1.444,0.528,2.371c0,0.199,0.148,0.535,0.331,0.633
						c1.517,0.819,0.301,2.153,0.573,3.376c0.079,0.355,0.528,0.791,0.724,1.068c0.644,0.909,0.409,1.666,0.185,2.631
						c-0.171,0.74,0.22,1.451,0.819,1.852c0.072,0.048,0.18-0.032,0.149-0.115c-0.249-0.688-0.656-1.117-0.476-1.926
						c0.096-0.427,0.34-0.844,0.248-1.3c-0.125-0.613-0.384-1.103-0.754-1.607c-0.42-0.573-0.693-0.622-0.531-1.565
						c0.057-0.328,0.219-0.638,0.246-0.972c0.101-1.251-1.355-1.758-1.094-2.925c0.163-0.726-0.152-1.51-0.926-1.606
						C75.337,50.366,75.334,50.434,75.365,50.458L75.365,50.458z"/>
				</g>
			</g>
			<g clip-path="url(#SVGID_4_)">
				<g>
					<path fill="#0F0A35" d="M76.637,50.373c0.438,0.086-0.121,1.812,0.323,2.252c0.594,0.589,1.327,1.061,1.028,2.094
						c-0.126,0.434-0.33,0.913-0.212,1.377c0.354,1.397,1.679,1.836,1.246,3.545c-0.206,0.818-0.554,1.73,0.227,2.331
						c0.065,0.05,0.138-0.043,0.105-0.105c-0.682-1.263,0.472-2.557-0.019-3.904c-0.127-0.35-0.42-0.657-0.657-0.935
						c-0.711-0.833-0.56-1.563-0.288-2.55c0.231-0.841-0.231-1.309-0.866-1.746c-1.052-0.723,0.093-1.958-0.693-2.528
						c-0.03-0.022-0.076-0.017-0.106,0c-0.033,0.019-0.068,0.038-0.103,0.057C76.578,50.285,76.584,50.362,76.637,50.373
						L76.637,50.373z"/>
				</g>
			</g>
			<g clip-path="url(#SVGID_4_)">
				<g>
					<path fill="#0F0A35" d="M77.786,50.155c-0.592,0.472-0.089,1.317,0.239,1.808c0.342,0.508,0.828,0.743,1.036,1.377
						c0.26,0.795-0.297,1.452-0.206,2.227c0.172,1.472,2.055,1.795,1.474,3.573c-0.416,1.271-1.091,2.104-0.36,3.432
						c0.03,0.057,0.128,0.033,0.124-0.033c-0.058-0.863-0.21-1.552,0.253-2.376c0.276-0.492,0.49-0.958,0.591-1.515
						c0.141-0.783-0.439-1.471-0.909-2.019c-0.563-0.658-0.831-1.262-0.527-2.105c0.148-0.41,0.06-0.886-0.021-1.298
						c-0.21-1.082-2.159-1.669-1.576-2.979C77.938,50.167,77.854,50.102,77.786,50.155L77.786,50.155z"/>
				</g>
			</g>
			<g clip-path="url(#SVGID_4_)">
				<g>
					<path fill="#0F0A35" d="M80.544,53.438c-1.027,1.291-0.182,2.718,0.798,3.666c1.315,1.271,0.117,2.444-0.396,3.7
						c-0.245,0.598-0.241,1.436,0.349,1.795c0.068,0.042,0.18-0.029,0.146-0.113c-0.729-1.804,1.279-2.882,0.83-4.715
						c-0.132-0.54-0.657-0.955-1.041-1.311c-0.893-0.829-0.835-1.848-0.546-2.94C80.705,53.444,80.599,53.369,80.544,53.438
						L80.544,53.438z"/>
				</g>
			</g>
			<g clip-path="url(#SVGID_4_)">
				<g>
					<path fill="#0F0A35" d="M81.63,55.688c0.062,0.49,0.287,0.807,0.632,1.16c0.784,0.801,1.178,1.547,0.563,2.595
						c-0.42,0.717-1.147,1.521-0.554,2.348c0.047,0.065,0.158,0.047,0.158-0.042c0-0.756,0.224-1.261,0.637-1.882
						c0.221-0.333,0.497-0.755,0.508-1.173c0.039-1.508-1.152-1.869-1.84-3.033C81.707,55.615,81.622,55.629,81.63,55.688
						L81.63,55.688z"/>
				</g>
			</g>
			<g clip-path="url(#SVGID_4_)">
				<g>
					<path fill="#0F0A35" d="M83.376,56.235c0.567,0.788,1.071,1.391,0.819,2.426c-0.168,0.692-0.668,1.228-0.803,1.946
						c-0.122,0.652,0.062,1.467,0.747,1.667c0.082,0.024,0.15-0.086,0.084-0.145c-1.221-1.095,0.136-2.496,0.384-3.674
						c0.21-0.995-0.454-1.698-1.145-2.289C83.419,56.128,83.336,56.18,83.376,56.235L83.376,56.235z"/>
				</g>
			</g>
		</g>
		<g>
			<path fill="#990F28" d="M77.953,51.296c0.077,0.016,0.16,0.031,0.231-0.002c0.063-0.029,0.102-0.089,0.139-0.146
				c0.378-0.585,0.575-1.124,0.918-1.699c0.057-0.097,0.013-0.223-0.096-0.254c-3.3-0.937-7.938-0.691-10.582-0.091
				c-0.069,0.016-0.142,0.044-0.185,0.102c-0.079,0.109,0,0.26,0.077,0.371c0.281,0.398,0.563,0.796,0.842,1.194
				c0.069,0.099,0.146,0.203,0.26,0.244S76.31,50.966,77.953,51.296z"/>
		</g>
		<g>
			<g>
				<path fill="#0F0A35" d="M69.866,50.374c0.277,0,0.509-0.231,0.509-0.509s-0.231-0.509-0.509-0.509s-0.509,0.232-0.509,0.509
					S69.589,50.374,69.866,50.374L69.866,50.374z"/>
			</g>
		</g>
		<g>
			<g>
				<path fill="#0F0A35" d="M71.496,50.25c0.226,0.157,0.604,0.113,0.777-0.106c0.129-0.162,0.203-0.335,0.146-0.546
					c-0.054-0.195-0.204-0.33-0.393-0.392c-0.229-0.075-0.477-0.002-0.644,0.165C71.111,49.642,71.203,50.046,71.496,50.25
					L71.496,50.25z"/>
			</g>
		</g>
		<g>
			<g>
				<path fill="#0F0A35" d="M74.377,50.115c0.004-0.007,0.008-0.015,0.011-0.022c0.178-0.344,0.03-0.78-0.36-0.888
					c-0.358-0.098-0.795,0.186-0.765,0.583c0.001,0.009,0.001,0.018,0.001,0.026c0.021,0.268,0.168,0.501,0.438,0.576
					C73.95,50.458,74.255,50.351,74.377,50.115L74.377,50.115z"/>
			</g>
		</g>
		<g>
			<g>
				<path fill="#0F0A35" d="M75.921,50.424c0.294,0,0.538-0.245,0.538-0.538c0-0.293-0.244-0.539-0.538-0.539
					s-0.538,0.245-0.538,0.539C75.383,50.179,75.627,50.424,75.921,50.424L75.921,50.424z"/>
			</g>
		</g>
		<g>
			<g>
				<path fill="#0F0A35" d="M77.839,50.55c0.229,0,0.422-0.191,0.422-0.421c0-0.229-0.192-0.421-0.422-0.421
					c-0.23,0-0.422,0.192-0.422,0.421C77.417,50.358,77.608,50.55,77.839,50.55L77.839,50.55z"/>
			</g>
		</g>
		<g>
			<g>
				<path fill="#0F0A35" d="M71.415,46.888c-0.011,0.128-0.093,0.256-0.046,0.384c0.029,0.081,0.136,0.101,0.184,0.024
					c0.076-0.123,0.038-0.294,0.008-0.427C71.541,46.782,71.422,46.809,71.415,46.888L71.415,46.888z"/>
			</g>
		</g>
		<g>
			<g>
				<path fill="#0F0A35" d="M72.921,47.658c-0.055,0.088-0.045,0.159-0.047,0.26c-0.001,0.153,0.249,0.149,0.235,0
					c-0.01-0.099-0.021-0.176-0.074-0.26C73.008,47.616,72.947,47.615,72.921,47.658L72.921,47.658z"/>
			</g>
		</g>
		<g>
			<g>
				<path fill="#0F0A35" d="M72.602,45.571c-0.055,0.165-0.093,0.329-0.067,0.504c0.016,0.114,0.213,0.114,0.229,0
					c0.025-0.175-0.013-0.339-0.067-0.504C72.68,45.524,72.617,45.524,72.602,45.571L72.602,45.571z"/>
			</g>
		</g>
		<g>
			<g>
				<path fill="#0F0A35" d="M74.002,46.438c-0.02,0.13-0.069,0.333,0.053,0.422c0.028,0.021,0.063,0.003,0.081-0.021
					c0.071-0.1-0.002-0.288-0.021-0.401C74.105,46.382,74.01,46.381,74.002,46.438L74.002,46.438z"/>
			</g>
		</g>
		<g>
			<g>
				<path fill="#0F0A35" d="M74.888,45.619c-0.066,0.117-0.069,0.23-0.044,0.36c0.029,0.157,0.284,0.121,0.276-0.037
					c-0.002-0.053-0.012-0.096-0.029-0.146c-0.021-0.061-0.067-0.104-0.091-0.163C74.981,45.587,74.916,45.568,74.888,45.619
					L74.888,45.619z"/>
			</g>
		</g>
		<g>
			<g>
				<path fill="#0F0A35" d="M75.206,47.885c-0.021,0.095-0.04,0.196-0.036,0.294c0.007,0.144,0.231,0.145,0.225,0
					c-0.004-0.102-0.04-0.195-0.061-0.294C75.32,47.821,75.22,47.822,75.206,47.885L75.206,47.885z"/>
			</g>
		</g>
		<g>
			<g>
				<path fill="#0F0A35" d="M76.02,46.835c-0.002,0.022-0.021,0.042-0.026,0.064c-0.011,0.039-0.016,0.091-0.019,0.131
					c-0.004,0.095-0.002,0.188,0.068,0.258c0.057,0.056,0.161,0.047,0.2-0.026c0.046-0.086,0.026-0.177,0.006-0.27
					c-0.021-0.092-0.07-0.138-0.138-0.195C76.074,46.765,76.026,46.789,76.02,46.835L76.02,46.835z"/>
			</g>
		</g>
		<g>
			<g>
				<path fill="#0F0A35" d="M76.795,48.087c0.014,0.132-0.037,0.299,0.044,0.414c0.073,0.107,0.252,0.044,0.216-0.091
					c-0.018-0.065-0.056-0.114-0.091-0.172c-0.034-0.055-0.058-0.116-0.088-0.173C76.855,48.029,76.79,48.043,76.795,48.087
					L76.795,48.087z"/>
			</g>
		</g>
		<g>
			<g>
				<path fill="#0F0A35" d="M70.563,48.071c-0.022,0.143-0.109,0.375,0.017,0.49c0.023,0.021,0.057,0.021,0.079,0
					c0.126-0.114,0.04-0.347,0.018-0.49C70.668,48.015,70.572,48.015,70.563,48.071L70.563,48.071z"/>
			</g>
		</g>
		<g>
			<g>
				<path fill="#F31033" d="M69.882,50.013c0.207,0,0.207-0.322,0-0.322S69.675,50.013,69.882,50.013L69.882,50.013z"/>
			</g>
		</g>
		<g>
			<g>
				<path fill="#F31033" d="M71.845,49.861c0.182,0,0.182-0.281,0-0.281C71.664,49.58,71.664,49.861,71.845,49.861L71.845,49.861z"
					/>
			</g>
		</g>
		<g>
			<g>
				<path fill="#F31033" d="M73.887,50.022c0.254,0,0.254-0.394,0-0.394S73.633,50.022,73.887,50.022L73.887,50.022z"/>
			</g>
		</g>
		<g>
			<g>
				<path fill="#F31033" d="M75.942,50.075c0.237,0,0.237-0.368,0-0.368S75.705,50.075,75.942,50.075L75.942,50.075z"/>
			</g>
		</g>
		<g>
			<g>
				<path fill="#F31033" d="M77.825,50.31c0.235,0,0.235-0.363,0-0.363C77.592,49.947,77.592,50.31,77.825,50.31L77.825,50.31z"/>
			</g>
		</g>
		<g>
			<g>
				<path fill="#F31033" d="M69.55,64.735c-0.529,1.253-0.864,2.805-1.844,3.816c-0.571,0.589,0.333,1.494,0.9,0.9
					c1.043-1.093,1.461-3.242,1.256-4.675C69.842,64.635,69.605,64.604,69.55,64.735L69.55,64.735z"/>
			</g>
		</g>
		<g>
			<g>
				<path fill="#F31033" d="M73.933,64.804c-0.372,1.49-0.358,3.547,0.31,4.958c0.337,0.712,1.361,0.091,1.047-0.612
					c-0.571-1.283-0.807-2.906-0.966-4.293C74.299,64.646,73.99,64.569,73.933,64.804L73.933,64.804z"/>
			</g>
		</g>
		<g>
			<g>
				<path fill="#F31033" d="M77.435,64.049c-0.099,0.968,0.271,1.882,0.701,2.732c0.327,0.646,1.066,2.051,1.925,1.958
					c0.273-0.03,0.454-0.195,0.476-0.475c0.052-0.685-0.833-1.349-1.215-1.861c-0.573-0.77-0.99-1.633-1.443-2.474
					C77.756,63.703,77.456,63.831,77.435,64.049L77.435,64.049z"/>
			</g>
		</g>
		<g>
			<g>
				<path fill="#0F0A35" d="M67.871,57.961c0.472-0.005,0.979,0.039,1.437-0.1c0.318-0.096,0.633-0.438,0.564-0.791
					c-0.06-0.319-0.314-0.559-0.64-0.598c-0.225-0.027-0.78,0.175-0.561,0.489c0.025,0.036,0.059,0.048,0.101,0.042
					c0.191-0.031,0.243-0.232,0.477-0.195c0.375,0.058,0.457,0.415,0.218,0.681c-0.38,0.424-1.145,0.133-1.608,0.424
					C67.837,57.927,67.845,57.962,67.871,57.961L67.871,57.961z"/>
			</g>
		</g>
		<g>
			<g>
				<path fill="#0F0A35" d="M71.592,64.429c-0.25,0.726-0.397,1.441-0.501,2.2c-0.095,0.694-0.294,1.426-0.2,2.127
					c0.072,0.552,0.957,0.811,1.073,0.145c0.253-1.453,0.048-2.952,0.064-4.414C72.03,64.227,71.671,64.198,71.592,64.429
					L71.592,64.429z"/>
			</g>
		</g>
		<g>
			<g>
				<path fill="#0F0A35" d="M68.424,64.415c-0.49,1.258-1.842,2.192-2.803,3.079c-0.529,0.489,0.248,1.244,0.783,0.783
					c0.92-0.792,2.891-2.444,2.354-3.861C68.695,64.249,68.487,64.251,68.424,64.415L68.424,64.415z"/>
			</g>
		</g>
		<g>
			<g>
				<path fill="#0F0A35" d="M75.356,63.98c-0.195,1.113,0.05,2.159,0.341,3.235c0.196,0.729,0.54,1.965,1.292,2.271
					c0.639,0.261,0.95-0.618,0.604-1.038c-0.353-0.428-0.578-1.187-0.82-1.688c-0.43-0.89-0.74-1.826-0.982-2.781
					C75.738,63.774,75.396,63.756,75.356,63.98L75.356,63.98z"/>
			</g>
		</g>
		<g>
			<g>
				<path fill="#0F0A35" d="M79.212,64.277c-0.121,0.908,0.489,1.535,1.091,2.133c0.528,0.524,0.97,1.307,1.778,1.374
					c0.778,0.064,0.795-1.24,0-1.22c-0.288,0.007-0.744-0.576-0.977-0.752c-0.453-0.343-1.407-0.903-1.478-1.534
					C79.597,64.008,79.248,64.013,79.212,64.277L79.212,64.277z"/>
			</g>
		</g>
		<g>
			<g>
				<path fill="#0F0A35" d="M74.123,66.393c0.316,0,0.316-0.491,0-0.491C73.808,65.902,73.808,66.393,74.123,66.393L74.123,66.393z"
					/>
			</g>
		</g>
		<g>
			<g>
				<path fill="#0F0A35" d="M74.202,67.504c0.357,0,0.357-0.552,0-0.552C73.848,66.952,73.848,67.504,74.202,67.504L74.202,67.504z"
					/>
			</g>
		</g>
		<g>
			<g>
				<path fill="#0F0A35" d="M74.534,68.439c0.003-0.002,0.005-0.004,0.007-0.006c0.111-0.109,0.111-0.299,0-0.407
					c-0.002-0.002-0.004-0.004-0.007-0.006c-0.184-0.18-0.506-0.051-0.506,0.21C74.028,68.49,74.351,68.619,74.534,68.439
					L74.534,68.439z"/>
			</g>
		</g>
		<g>
			<g>
				<path fill="#0F0A35" d="M74.523,69.05c-0.005,0.004-0.009,0.008-0.014,0.012c-0.077,0.072-0.077,0.21,0,0.282
					c0.005,0.004,0.009,0.008,0.014,0.013c0.138,0.126,0.371,0.042,0.371-0.154C74.895,69.009,74.661,68.924,74.523,69.05
					L74.523,69.05z"/>
			</g>
		</g>
		<g>
			<g>
				<path fill="#0F0A35" d="M77.865,65.06c0.297,0,0.297-0.459,0-0.459S77.568,65.06,77.865,65.06L77.865,65.06z"/>
			</g>
		</g>
		<g>
			<g>
				<path fill="#0F0A35" d="M78.187,65.961c0.344,0,0.344-0.532,0-0.532S77.843,65.961,78.187,65.961L78.187,65.961z"/>
			</g>
		</g>
		<g>
			<g>
				<path fill="#0F0A35" d="M78.713,66.948c0.189,0,0.348-0.158,0.348-0.348c0-0.189-0.158-0.347-0.348-0.347
					c-0.188,0-0.347,0.158-0.347,0.347C78.366,66.79,78.524,66.948,78.713,66.948L78.713,66.948z"/>
			</g>
		</g>
		<g>
			<g>
				<path fill="#0F0A35" d="M79.367,67.731c0.174,0,0.319-0.146,0.319-0.319s-0.146-0.319-0.319-0.319
					c-0.175,0-0.319,0.146-0.319,0.319S79.192,67.731,79.367,67.731L79.367,67.731z"/>
			</g>
		</g>
		<g>
			<g>
				<path fill="#0F0A35" d="M79.924,68.244c0.304,0,0.304-0.469,0-0.469C79.622,67.775,79.622,68.244,79.924,68.244L79.924,68.244z"
					/>
			</g>
		</g>
		<g>
			<g>
				<path fill="#0F0A35" d="M69.545,66.057c0.297,0,0.297-0.461,0-0.461C69.247,65.596,69.247,66.057,69.545,66.057L69.545,66.057z"
					/>
			</g>
		</g>
		<g>
			<g>
				<path fill="#0F0A35" d="M69.355,67.037c0.365,0,0.365-0.567,0-0.567C68.989,66.47,68.989,67.037,69.355,67.037L69.355,67.037z"
					/>
			</g>
		</g>
		<g>
			<g>
				<path fill="#0F0A35" d="M69.013,67.961c0.385,0,0.385-0.598,0-0.598C68.627,67.364,68.627,67.961,69.013,67.961L69.013,67.961z"
					/>
			</g>
		</g>
		<g>
			<g>
				<path fill="#0F0A35" d="M68.591,68.714c0.32,0,0.32-0.496,0-0.496C68.271,68.218,68.271,68.714,68.591,68.714L68.591,68.714z"/>
			</g>
		</g>
		<g>
			<g>
				<path fill="#0F0A35" d="M68.09,69.361c0.237,0,0.237-0.368,0-0.368S67.853,69.361,68.09,69.361L68.09,69.361z"/>
			</g>
		</g>
		<g>
			<g>
				<path fill="#222272" d="M81.084,77.528c0.097,0.108,0.207,0.202,0.326,0.285c0.078,0.056,0.226,0.181,0.318,0.089
					c0.098-0.098-0.102-0.184-0.159-0.213c-0.138-0.072-0.263-0.164-0.373-0.273C81.123,77.344,81.018,77.452,81.084,77.528
					L81.084,77.528z"/>
			</g>
		</g>
		<g>
			<g>
				<path fill="#222272" d="M83.635,79.404c0.097,0.107,0.206,0.201,0.325,0.285c0.078,0.055,0.226,0.18,0.318,0.088
					c0.098-0.098-0.102-0.184-0.159-0.213c-0.137-0.072-0.263-0.164-0.372-0.273C83.673,79.219,83.567,79.328,83.635,79.404
					L83.635,79.404z"/>
			</g>
		</g>
		<g>
			<g>
				<path fill="#222272" d="M72.675,77.504c0.097,0.109,0.206,0.201,0.325,0.285c0.079,0.056,0.227,0.18,0.318,0.088
					c0.098-0.098-0.102-0.184-0.158-0.213c-0.139-0.072-0.264-0.164-0.373-0.272C72.714,77.32,72.608,77.428,72.675,77.504
					L72.675,77.504z"/>
			</g>
		</g>
		<g>
			<g>
				<path fill="#222272" d="M87.71,77.738c0.096,0.109,0.205,0.203,0.324,0.287c0.079,0.055,0.227,0.18,0.319,0.088
					c0.098-0.098-0.103-0.184-0.159-0.213c-0.138-0.073-0.263-0.165-0.373-0.273C87.748,77.555,87.643,77.663,87.71,77.738
					L87.71,77.738z"/>
			</g>
		</g>
		<g>
			<g>
				<path fill="#222272" d="M78.409,77.563c-0.08,0.193-0.104,0.418-0.074,0.627c0.02,0.145,0.249,0.105,0.249-0.035
					c0-0.197-0.041-0.41-0.116-0.592C78.456,77.533,78.421,77.533,78.409,77.563L78.409,77.563z"/>
			</g>
		</g>
		<g>
			<g>
				<path fill="#222272" d="M70.209,75.421c-0.08,0.194-0.104,0.419-0.074,0.627c0.02,0.146,0.25,0.105,0.25-0.034
					c-0.001-0.197-0.042-0.411-0.117-0.593C70.256,75.392,70.221,75.392,70.209,75.421L70.209,75.421z"/>
			</g>
		</g>
		<g>
			<g>
				<path fill="#222272" d="M62.134,70.962c-0.08,0.194-0.103,0.419-0.074,0.627c0.021,0.145,0.25,0.105,0.25-0.034
					c0-0.197-0.041-0.411-0.116-0.593C62.181,70.933,62.146,70.933,62.134,70.962L62.134,70.962z"/>
			</g>
		</g>
		<g>
			<g>
				<path fill="#222272" d="M76.309,78.088c-0.08,0.193-0.103,0.418-0.074,0.627c0.021,0.145,0.25,0.105,0.25-0.035
					c0-0.197-0.041-0.41-0.116-0.592C76.356,78.059,76.32,78.059,76.309,78.088L76.309,78.088z"/>
			</g>
		</g>
		<g>
			<g>
				<path fill="#222272" d="M77.776,72.755c0.103-0.034,0.225-0.035,0.333-0.041c0.095-0.005,0.233-0.005,0.273-0.108
					c0.006-0.018-0.002-0.042-0.015-0.056c-0.077-0.069-0.223-0.023-0.316-0.01c-0.123,0.017-0.237,0.033-0.327,0.127
					C77.689,72.703,77.724,72.772,77.776,72.755L77.776,72.755z"/>
			</g>
		</g>
		<g>
			<g>
				<path fill="#222272" d="M65.251,72.455c0.103-0.034,0.226-0.035,0.334-0.042c0.094-0.005,0.232-0.004,0.272-0.107
					c0.007-0.018-0.001-0.043-0.015-0.056c-0.076-0.069-0.223-0.023-0.315-0.011c-0.123,0.017-0.238,0.033-0.328,0.127
					C65.164,72.403,65.199,72.472,65.251,72.455L65.251,72.455z"/>
			</g>
		</g>
		<g>
			<g>
				<path fill="#222272" d="M71.008,71.204c0.104-0.034,0.226-0.035,0.334-0.041c0.094-0.005,0.234-0.005,0.272-0.107
					c0.007-0.018-0.002-0.043-0.015-0.056c-0.076-0.07-0.223-0.023-0.314-0.011c-0.124,0.017-0.239,0.032-0.328,0.127
					C70.922,71.152,70.955,71.221,71.008,71.204L71.008,71.204z"/>
			</g>
		</g>
		<g>
			<g>
				<path fill="#222272" d="M78.428,74.249c0.106,0.023,0.212,0.086,0.308,0.136c0.084,0.043,0.203,0.116,0.289,0.047
					c0.016-0.012,0.021-0.037,0.016-0.055c-0.028-0.099-0.179-0.134-0.265-0.17c-0.115-0.049-0.222-0.095-0.346-0.059
					C78.381,74.161,78.374,74.237,78.428,74.249L78.428,74.249z"/>
			</g>
		</g>
		<g>
			<g>
				<path fill="#222272" d="M86.127,80.828c0.106,0.023,0.212,0.086,0.308,0.137c0.083,0.043,0.203,0.115,0.289,0.047
					c0.016-0.012,0.021-0.037,0.016-0.055c-0.028-0.1-0.179-0.135-0.265-0.172c-0.115-0.049-0.223-0.094-0.347-0.059
					C86.079,80.74,86.073,80.816,86.127,80.828L86.127,80.828z"/>
			</g>
		</g>
		<g>
			<g>
				<path fill="#222272" d="M63.275,67.28c0.102-0.039,0.224-0.045,0.332-0.057c0.094-0.01,0.232-0.017,0.268-0.121
					c0.006-0.019-0.004-0.043-0.019-0.055c-0.079-0.066-0.223-0.012-0.314,0.004c-0.123,0.023-0.237,0.044-0.322,0.143
					C63.188,67.232,63.225,67.299,63.275,67.28L63.275,67.28z"/>
			</g>
		</g>
		<g>
			<g>
				<path fill="#222272" d="M85.937,79.207c0.106,0.023,0.212,0.086,0.308,0.135c0.084,0.045,0.203,0.117,0.29,0.049
					c0.015-0.014,0.021-0.039,0.016-0.057c-0.029-0.098-0.18-0.133-0.265-0.17c-0.115-0.049-0.223-0.096-0.348-0.059
					C85.889,79.119,85.883,79.195,85.937,79.207L85.937,79.207z"/>
			</g>
		</g>
		<g>
			<g>
				<path fill="#222272" d="M84.177,77.979c0.106,0.023,0.212,0.086,0.309,0.135c0.083,0.045,0.202,0.117,0.288,0.049
					c0.016-0.014,0.021-0.037,0.017-0.057c-0.03-0.098-0.18-0.133-0.266-0.17c-0.114-0.049-0.222-0.095-0.347-0.059
					C84.129,77.89,84.123,77.967,84.177,77.979L84.177,77.979z"/>
			</g>
		</g>
		<g>
			<g>
				<path fill="#222272" d="M79.115,76.376c0.051,0.101,0.17,0.106,0.27,0.088c0.074-0.015,0.146-0.045,0.218-0.067
					c0.078-0.025,0.164-0.034,0.232-0.081c0.057-0.038,0.077-0.144,0-0.177c-0.128-0.057-0.247,0-0.37,0.049
					c-0.117,0.048-0.229,0.092-0.34,0.152C79.111,76.348,79.109,76.363,79.115,76.376L79.115,76.376z"/>
			</g>
		</g>
		<g>
			<g>
				<path fill="#222272" d="M64.31,70.764c0.05,0.101,0.169,0.107,0.269,0.088c0.074-0.014,0.147-0.044,0.219-0.068
					c0.078-0.024,0.164-0.034,0.232-0.08c0.057-0.039,0.076-0.144,0-0.177c-0.129-0.056-0.248,0-0.37,0.049
					c-0.118,0.047-0.229,0.091-0.34,0.152C64.306,70.735,64.304,70.751,64.31,70.764L64.31,70.764z"/>
			</g>
		</g>
		<g>
			<g>
				<path fill="#222272" d="M68.69,72.551c0.05,0.101,0.17,0.107,0.27,0.088c0.074-0.015,0.146-0.045,0.218-0.067
					c0.078-0.025,0.164-0.034,0.232-0.081c0.057-0.038,0.076-0.143,0-0.177c-0.128-0.056-0.248,0-0.37,0.049
					c-0.117,0.047-0.229,0.091-0.34,0.152C68.687,72.522,68.685,72.538,68.69,72.551L68.69,72.551z"/>
			</g>
		</g>
		<g>
			<g>
				<path fill="#222272" d="M75.285,72.077c0.051,0.101,0.17,0.107,0.269,0.088c0.074-0.014,0.147-0.045,0.219-0.068
					c0.078-0.024,0.164-0.034,0.233-0.08c0.056-0.039,0.075-0.144,0-0.177c-0.13-0.056-0.249,0-0.371,0.049
					c-0.118,0.047-0.229,0.091-0.341,0.152C75.281,72.048,75.278,72.064,75.285,72.077L75.285,72.077z"/>
			</g>
		</g>
		<g>
			<g>
				<path fill="#222272" d="M62.09,69.401c0.051,0.101,0.17,0.107,0.27,0.088c0.074-0.015,0.146-0.045,0.219-0.068
					c0.077-0.024,0.164-0.034,0.232-0.081c0.056-0.039,0.076-0.144,0-0.177c-0.129-0.056-0.248,0-0.37,0.049
					c-0.118,0.047-0.23,0.091-0.341,0.152C62.087,69.372,62.084,69.388,62.09,69.401L62.09,69.401z"/>
			</g>
		</g>
		<g>
			<g>
				<g>
					<path fill="#0F0A35" d="M79.858,68.364c0.078,0.067,0.155,0.133,0.233,0.199c0.063,0.055,0.123,0.135,0.216,0.113
						c0.038-0.01,0.059-0.036,0.059-0.076c0-0.095-0.091-0.134-0.16-0.184c-0.082-0.06-0.165-0.12-0.247-0.18
						C79.874,68.175,79.778,68.296,79.858,68.364L79.858,68.364z"/>
				</g>
			</g>
			<g>
				<g>
					<path fill="#0F0A35" d="M82.572,69.195c0.038-0.103,0.093-0.197,0.146-0.292c0.051-0.087,0.095-0.169,0.043-0.265
						c-0.014-0.026-0.047-0.052-0.079-0.035c-0.096,0.051-0.115,0.124-0.148,0.222c-0.037,0.11-0.076,0.217-0.096,0.332
						C82.425,69.236,82.545,69.271,82.572,69.195L82.572,69.195z"/>
				</g>
			</g>
			<g>
				<g>
					<path fill="#0F0A35" d="M81.776,70.976c0.118-0.039,0.235-0.074,0.355-0.108c0.105-0.03,0.245-0.082,0.331-0.15
						c0.096-0.076,0.062-0.235-0.064-0.253c-0.284-0.041-0.479,0.246-0.699,0.371C81.615,70.883,81.694,71.003,81.776,70.976
						L81.776,70.976z"/>
				</g>
			</g>
			<g>
				<g>
					<path fill="#0F0A35" d="M89.348,72.504c0.055-0.131,0.104-0.264,0.16-0.395c0.047-0.107,0.107-0.22,0.066-0.337
						c-0.015-0.043-0.061-0.053-0.1-0.043c-0.122,0.031-0.176,0.167-0.213,0.276c-0.046,0.135-0.082,0.273-0.124,0.41
						C89.096,72.553,89.291,72.643,89.348,72.504L89.348,72.504z"/>
				</g>
			</g>
			<g>
				<path fill="#F31033" d="M81.095,67.306c-0.796,0.866-1.754,1.685-2.072,2.817c-0.193,0.689-0.079,1.427,0.096,2.122
					c0.203,0.803,0.488,1.594,0.946,2.283s1.453,1.619,2.222,1.924c1.166,0.463,2.37,0.759,3.617,0.623
					c1.452-0.157,2.718-1.34,3.357-2.653c0.641-1.313,1.062-3.226,0.598-4.611c-0.053-0.156-0.11-0.31-0.168-0.464
					c-0.598-1.587-2.099-2.956-3.702-3.503C84.849,65.455,83.206,65.005,81.095,67.306z"/>
			</g>
			<g>
				<path fill="#B70327" d="M78.831,70.35c-0.011,0.761,0.093,1.429,0.472,1.947c0.804,1.095,2.353,2.212,3.465,2.992
					c0.093,0.064,0.189,0.129,0.301,0.145s0.239-0.036,0.275-0.142c0.005-0.014,0.008-0.027,0.01-0.042
					c0.028-0.235-0.064-0.47-0.204-0.662c-0.903-1.24-1.276-1.264-2.461-2.927c-0.332-0.466,0.382-0.737,0.627-0.504
					c0.812,0.774,1.229,1.218,2.04,1.992c0.381,0.363,0.945,0.773,1.424,0.969c0.188,0.076,0.453-0.265,0.385-0.455
					c-0.22-0.612-0.724-1.186-1.252-1.611c-0.521-0.419-1.534-1.084-1.825-1.63c-0.248-0.464,0.181-0.855,0.234-0.819
					c1.386,0.956,2.443,1.854,3.578,2.342c0.289,0.125,0.934-0.433-0.156-1.292c-1.264-0.996-1.854-1.179-2.803-2.094
					c-0.259-0.25,0.177-0.765,0.521-0.663c0.107,0.031,1.561,1.218,3.07,1.805c0.23,0.089,0.757,0.174,0.81-0.053
					c0.114-0.486-0.616-1.105-1.207-1.489c-0.64-0.415-1.64-1.147-2.323-1.485c-0.512-0.253-1.501-0.481-2.987,0.382
					c-0.607,0.353-1.071,0.844-1.417,1.455S78.84,69.649,78.831,70.35z"/>
			</g>
			<g>
				<g>
					<path fill="#0F0A35" d="M88.462,70.646c0.147-0.188,0.114-0.468-0.073-0.615c-0.188-0.148-0.467-0.115-0.615,0.073
						s-0.114,0.468,0.073,0.616C88.034,70.867,88.313,70.834,88.462,70.646L88.462,70.646z"/>
				</g>
			</g>
			<g>
				<g>
					<path fill="#0F0A35" d="M88.564,71.312c0.006,0.006,0.011,0.012,0.017,0.017c0.103,0.106,0.302,0.088,0.411,0.007
						c0.135-0.1,0.2-0.341,0.072-0.475c-0.005-0.006-0.011-0.012-0.016-0.017c-0.128-0.135-0.313-0.192-0.477-0.073
						c-0.072,0.054-0.121,0.137-0.135,0.227C88.42,71.128,88.478,71.223,88.564,71.312L88.564,71.312z"/>
				</g>
			</g>
			<g>
				<g>
					<path fill="#0F0A35" d="M89.508,71.891c0.156-0.198-0.15-0.439-0.307-0.241C89.045,71.847,89.353,72.089,89.508,71.891
						L89.508,71.891z"/>
				</g>
			</g>
			<g>
				<g>
					<path fill="#0F0A35" d="M87.28,72.594c0.143-0.179,0.11-0.447-0.068-0.588c-0.18-0.141-0.448-0.109-0.589,0.07
						c-0.142,0.179-0.109,0.447,0.069,0.588C86.872,72.805,87.14,72.773,87.28,72.594L87.28,72.594z"/>
				</g>
			</g>
			<g>
				<g>
					<path fill="#0F0A35" d="M88.063,73.172c0.268-0.34-0.26-0.755-0.527-0.416C87.269,73.096,87.796,73.512,88.063,73.172
						L88.063,73.172z"/>
				</g>
			</g>
			<g>
				<g>
					<path fill="#0F0A35" d="M88.677,73.463c0.123-0.155-0.118-0.345-0.241-0.189C88.313,73.428,88.555,73.619,88.677,73.463
						L88.677,73.463z"/>
				</g>
			</g>
			<g>
				<g>
					<path fill="#0F0A35" d="M85.691,73.965c-0.008,0.004-0.016,0.008-0.023,0.012c-0.134,0.069-0.233,0.168-0.256,0.325
						c-0.02,0.143,0.039,0.289,0.152,0.378s0.269,0.112,0.402,0.06c0.147-0.058,0.221-0.179,0.257-0.325
						c0.002-0.008,0.004-0.017,0.006-0.025C86.298,74.113,85.944,73.834,85.691,73.965L85.691,73.965z"/>
				</g>
			</g>
			<g>
				<g>
					<path fill="#0F0A35" d="M86.874,74.922c0.093-0.118,0.072-0.292-0.046-0.385c-0.117-0.092-0.292-0.071-0.385,0.046
						c-0.092,0.117-0.071,0.292,0.046,0.385C86.606,75.061,86.781,75.04,86.874,74.922L86.874,74.922z"/>
				</g>
			</g>
			<g>
				<g>
					<path fill="#0F0A35" d="M84.474,76.102c0.12-0.151,0.093-0.378-0.059-0.498c-0.152-0.121-0.38-0.093-0.499,0.059
						c-0.12,0.152-0.094,0.378,0.059,0.5C84.127,76.281,84.354,76.254,84.474,76.102L84.474,76.102z"/>
				</g>
			</g>
			<g>
				<g>
					<path fill="#0F0A35" d="M85.27,76.307c0.186-0.235-0.18-0.523-0.365-0.287C84.719,76.255,85.084,76.543,85.27,76.307
						L85.27,76.307z"/>
				</g>
			</g>
			<g>
				<g>
					<path fill="#0F0A35" d="M86.083,76.373c0.151-0.191-0.146-0.425-0.295-0.234C85.637,76.33,85.933,76.563,86.083,76.373
						L86.083,76.373z"/>
				</g>
			</g>
			<g>
				<g>
					<path fill="#0F0A35" d="M81.286,69.703c0.257-0.129,0.431-0.216,0.555-0.495c0.126-0.284,0.067-0.618-0.045-0.894
						c-0.271-0.668-0.967-0.97-1.644-0.786c-0.66,0.18-1.084,0.997-1.091,1.636c-0.008,0.816,0.53,1.377,1.357,1.333
						c1.19-0.063,2.105-2.243,0.862-2.854c-0.782-0.384-1.496,0.233-1.689,0.977c-0.092,0.358-0.046,0.718,0.149,1.033
						c0.199,0.32,0.678,0.558,1.013,0.266c0.311-0.271,0.412-0.69,0.44-1.088c0.05-0.715-1.056-0.877-1.108-0.155
						c-0.001,0.031-0.004,0.061-0.011,0.091c0.038-0.089,0.076-0.179,0.114-0.269c-0.095,0.141-0.115,0.246-0.115,0.412
						c0.001,0.653,1.014,0.618,1.109,0.011c0.006-0.03,0.01-0.06,0.011-0.09c-0.37-0.052-0.739-0.104-1.108-0.155
						c-0.01,0.124-0.028,0.246-0.056,0.368c0.02-0.09-0.027,0.07-0.029,0.073c0.11-0.274,0.776,0.187,0.65-0.134
						c-0.011-0.025,0.066-0.219,0.099-0.284c0.004-0.01,0.079-0.075,0.037-0.053c-0.039,0.02,0.091,0.034,0.013,0.005
						c-0.034-0.013-0.063-0.103-0.051-0.013c0.007,0.049-0.019,0.171-0.043,0.242c-0.052,0.153-0.092,0.217-0.167,0.321
						c-0.069,0.094-0.048,0.07-0.1,0.114c-0.029,0.024-0.06,0.047-0.092,0.067c0.049-0.025,0.045-0.025-0.015,0.001
						c0.096-0.04-0.013,0.007-0.062,0.006c-0.118-0.004-0.014,0.03-0.086-0.025c0.078,0.061-0.016-0.074-0.016-0.115
						c0.003-0.252,0.113-0.566,0.326-0.669c0.076-0.037,0.14-0.013,0.182,0.003c0.062,0.022,0.212,0.135,0.27,0.199
						c0.147,0.165,0.2,0.451,0.081,0.574C80.875,69.514,81.091,69.8,81.286,69.703L81.286,69.703z"/>
				</g>
			</g>
			<g>
				<g>
					<path fill="#990F28" d="M80.674,69.153c0.245-0.311-0.237-0.691-0.482-0.38S80.429,69.464,80.674,69.153L80.674,69.153z"/>
				</g>
			</g>
			<g>
				<g>
					<path fill="#990F28" d="M81.46,68.967c0.165-0.209-0.159-0.464-0.323-0.255C80.972,68.92,81.295,69.175,81.46,68.967
						L81.46,68.967z"/>
				</g>
			</g>
			<g>
				<g>
					<path fill="#990F28" d="M81.025,68.317c0.148-0.189-0.144-0.419-0.293-0.231C80.583,68.275,80.877,68.506,81.025,68.317
						L81.025,68.317z"/>
				</g>
			</g>
			<g>
				<g>
					<path fill="#990F28" d="M79.852,68.063c-0.004,0.004-0.009,0.008-0.013,0.013c-0.096,0.091-0.081,0.214,0.032,0.281
						c0.006,0.003,0.011,0.006,0.017,0.009c0.119,0.069,0.257-0.064,0.242-0.182C80.116,68.064,79.95,67.968,79.852,68.063
						L79.852,68.063z"/>
				</g>
			</g>
			<g>
				<g>
					<path fill="#990F28" d="M79.657,69.158c0.14-0.178-0.135-0.395-0.275-0.217C79.241,69.119,79.518,69.336,79.657,69.158
						L79.657,69.158z"/>
				</g>
			</g>
			<g>
				<g>
					<path fill="#990F28" d="M79.977,69.909c0.132-0.168-0.129-0.375-0.263-0.206C79.581,69.872,79.843,70.078,79.977,69.909
						L79.977,69.909z"/>
				</g>
			</g>
			<g>
				<g>
					<path fill="#990F28" d="M80.884,69.933c0.137-0.173-0.132-0.385-0.269-0.212C80.479,69.895,80.748,70.106,80.884,69.933
						L80.884,69.933z"/>
				</g>
			</g>
		</g>
		<g>
			<path fill="#0F0A35" d="M75.604,105.447c-0.133,0.041-0.274-0.043-0.359-0.154c-0.179-0.23-0.173-0.551-0.16-0.842
				c0.002-0.033,0.004-0.068,0.028-0.088c0.019-0.018,0.045-0.02,0.069-0.021c0.172-0.014,0.345-0.002,0.513,0.029
				c0.081,0.197,0.125,0.41,0.131,0.623C75.831,105.174,75.778,105.395,75.604,105.447z"/>
		</g>
		<g>
			<path fill="#990F28" d="M82.542,84.1c0.568-0.457,1.221-0.805,1.776-1.277c0.375-0.318,0.711-0.717,0.896-1.166
				c0.105-0.254-0.145-0.518-0.402-0.422c-0.358,0.131-0.729,0.18-1.045-0.012c-0.401-0.242-0.512-0.764-0.733-1.18
				c-0.45-0.844-1.52-1.301-2.44-1.043c-1.005,0.283-1.761,1.287-2.804,1.32c-1.239,0.037-2.202-1.33-3.44-1.258
				c-1.065,0.063-1.83,1.174-2.891,1.295c-1.181,0.137-2.341-0.996-3.451-0.58c-0.158,0.061-0.297,0.162-0.42,0.277
				c-1.379,1.293-0.944,2.006-2.782,1.553c-0.037-0.01-0.081-0.008-0.114,0.012c-0.782,0.461,1.895,2.527,3.104,3.563
				c1.122,0.961,2.03,2.254,2.219,3.719c0.108,0.842,0.005,1.787,0.541,2.443c0.066,0.082,0.143,0.156,0.233,0.213
				c0.489,0.297,1.088-0.1,1.559-0.428c1.6-1.115,3.562-1.563,5.484-1.883c0.852-0.143,1.714-0.266,2.52-0.582
				c0.152-0.059,0.279-0.18,0.33-0.334c0.079-0.246-0.132-0.318-0.2-0.475c-0.039-0.09-0.024-0.193-0.006-0.289
				C80.724,86.215,81.472,84.961,82.542,84.1z"/>
		</g>
		<g>
			<path fill="#F5D6A1" d="M77.832,100.08c0.768-0.496,1.933-1.156,2.25-2.014c0.316-0.857,0.525-1.758,0.947-2.568
				c0.397-0.76,0.968-1.412,1.503-2.08c0.276-0.348,0.554-0.83,0.309-1.199c-0.205-0.313-0.655-0.324-1.022-0.258
				s-0.767,0.178-1.098,0.006c0.081-1.002,0.124-1.926,0.205-2.928c0.033-0.418,0.065-0.85-0.076-1.244
				c-0.309-0.857-1.325-1.236-2.236-1.295c-1.953-0.123-3.863,0.732-5.396,1.947c-0.371,0.293-0.729,0.609-1.032,0.973
				c-0.535,0.639-0.895,1.402-1.25,2.156c-0.174,0.369-0.35,0.742-0.439,1.143c-0.102,0.453-0.09,0.928-0.055,1.393
				c0.081,1.121,0.287,2.246,0.753,3.27c0.467,1.021,1.209,1.941,2.191,2.486c0.555,0.309,1.173,0.492,1.799,0.592
				C76.276,100.633,76.902,100.68,77.832,100.08z"/>
		</g>
		<g>
			<path fill="#F31033" d="M75.788,104.959c-0.457,0.047-0.922-0.01-1.362-0.141c-0.953-0.279-1.806-0.904-2.335-1.746
				c-0.529-0.84-0.726-1.889-0.513-2.859c2.424,0.514,4.959,0.5,7.379-0.037c0.119,1.057-0.053,2.166-0.604,3.076
				S76.847,104.848,75.788,104.959z"/>
		</g>
		<g>
			<path fill="#0F0A35" d="M73.359,95.906c0,0,0.129-0.027,0.232-0.02c1.237,0.084,2.931,0.346,4.079,0.068
				c0.144-0.035,0.309-0.033,0.415-0.084c0.076-0.037,0.048-0.18,0.124-0.143c0.158,0.078,0.311,1.35,0.286,1.977
				c-0.002,0.059-0.038,0.111-0.094,0.129c-0.464,0.139-1.141,0.113-1.602,0.082c-0.58-0.041-1.404-0.205-1.806-0.422
				C74.547,97.252,73.823,96.875,73.359,95.906z"/>
		</g>
		<g>
			<path fill="#FFFFFF" d="M78.257,95.773c0.004,0.012,0.001,0.027-0.006,0.039c-0.26,0.381-0.608,0.736-1.49,0.969
				c-1.225,0.324-2.538,0.053-3.401-0.875c1.279-0.668,2.177-0.744,4.258-0.416C77.825,95.523,78.187,95.578,78.257,95.773z"/>
		</g>
		<g>
			<path fill="#D6142B" d="M75.141,90.695c-0.071,0.041,0.145,0.357-0.343,0.449c-0.218,0.041-0.34-0.033-0.382-0.25
				c-0.053-0.277,0.212-0.748,0.579-0.977c0.368-0.227,0.688-0.359,1.119-0.336c1.191,0.063,2.357,0.525,3.269,1.297
				c0.315,0.27,0.969,0.807,1.132,0.752c0.16-0.051,0.471-0.459,1.067-1.238c0.364-0.475,0.957-1.059,1.555-1.041
				c0.294,0.01,0.522,0.168,0.646,0.436s0.083,0.57-0.158,0.738c-0.342,0.236-0.487-0.014-0.619-0.066
				c-0.081-0.033-0.034,0.229,0.014,0.303c0.329,0.514,0.939,0.359,1.291,0.119c0.35-0.24,0.497-0.637,0.579-1.055
				c0.065-0.328,0.017-0.717-0.099-1.031c-0.25-0.676-1.078-0.807-1.798-0.84c-0.909-0.039-1.738,0.461-2.029,1.121
				c-0.54,1.225-0.443,1.375-0.58,1.357c-0.092-0.014-0.232-0.936-0.435-1.279c-1-1.699-3.288-1.561-4.307-1.303
				c-1.021,0.256-1.739,0.871-2.108,1.857c-0.355,0.947-0.056,1.461,0.343,1.936c0.247,0.297,0.658,0.422,1.04,0.369
				c0.277-0.039,0.518-0.303,0.554-0.58C75.536,90.934,75.232,90.643,75.141,90.695z"/>
		</g>
		<g>
			<path fill="#E11540" d="M69.857,97.902c-0.327-0.449-0.967-1.596-1.29-2.047c-0.625-0.875-0.876-1.879-1.836-2.361
				c-0.466-0.234-1.072-0.365-1.581-0.475c-0.509-0.111-0.851-0.346-1.089-0.809c-0.279-0.543-0.379-1.074-0.053-1.967
				c0.129-0.352,0.738-1.09,2.431-1.262c0.462-0.047,1.155-0.109,2.013-0.057c1.065,0.066,0.989,0.088,2.056,0.088
				c0.737,0,0.737,0.035,1.019,0.703c0.189,0.449,0.485,2.121,0.703,2.881c0.078,0.273,1.023,4.254,1.184,4.84
				c0.126,0.459,0.251,0.92,0.377,1.379c0.068,0.252,0.135,0.531,0.022,0.766c-0.17,0.355-0.636,0.422-1.027,0.441
				c-0.271,0.016-0.543,0.029-0.814,0.043c-0.11,0.006-0.223,0.012-0.327-0.021c-0.129-0.039-0.058-0.344-0.152-0.439
				C70.753,98.85,70.48,98.756,69.857,97.902z"/>
		</g>
		<g>
			<path fill="#0F0A35" d="M76.05,95.512c-0.735-0.043-0.752,0.518-0.746,0.703c0.009,0.27,0.254,0.502,0.523,0.525
				c0.309,0.029,0.618-0.207,0.674-0.512C76.556,95.924,76.358,95.531,76.05,95.512z"/>
		</g>
		<g>
			<defs>
				<path id="SVGID_5_" d="M75.141,90.695c-0.071,0.041,0.145,0.357-0.343,0.449c-0.218,0.041-0.34-0.033-0.382-0.25
					c-0.053-0.277,0.212-0.748,0.579-0.977c0.368-0.227,0.688-0.359,1.119-0.336c1.191,0.063,2.357,0.525,3.269,1.297
					c0.315,0.27,0.969,0.807,1.132,0.752c0.16-0.051,0.471-0.459,1.067-1.238c0.364-0.475,0.957-1.059,1.555-1.041
					c0.294,0.01,0.522,0.168,0.646,0.436s0.083,0.57-0.158,0.738c-0.342,0.236-0.487-0.014-0.619-0.066
					c-0.081-0.033-0.034,0.229,0.014,0.303c0.329,0.514,0.939,0.359,1.291,0.119c0.35-0.24,0.497-0.637,0.579-1.055
					c0.065-0.328,0.017-0.717-0.099-1.031c-0.25-0.676-1.078-0.807-1.798-0.84c-0.909-0.039-1.738,0.461-2.029,1.121
					c-0.54,1.225-0.443,1.375-0.58,1.357c-0.092-0.014-0.232-0.936-0.435-1.279c-1-1.699-3.288-1.561-4.307-1.303
					c-1.021,0.256-1.739,0.871-2.108,1.857c-0.355,0.947-0.056,1.461,0.343,1.936c0.247,0.297,0.658,0.422,1.04,0.369
					c0.277-0.039,0.518-0.303,0.554-0.58C75.536,90.934,75.232,90.643,75.141,90.695z"/>
			</defs>
			<clipPath id="SVGID_6_">
				<use xlink:href="#SVGID_5_"  overflow="visible"/>
			</clipPath>
			<g clip-path="url(#SVGID_6_)">
				<g>
					<path fill="#0F0A35" d="M79.988,92.023c0.512,0.244,0.881-0.275,1.064-0.695c0.112-0.258,0.223-0.535,0.168-0.822
						c-0.156-0.826-0.393-1.344-0.025-2.174c0.019-0.041-0.028-0.084-0.063-0.049c-0.422,0.41-0.532,0.838-0.453,1.41
						c0.053,0.395,0.281,0.713,0.27,1.125c-0.017,0.57-0.312,1.125-0.947,1.156C79.978,91.977,79.965,92.01,79.988,92.023
						L79.988,92.023z"/>
				</g>
			</g>
			<g clip-path="url(#SVGID_6_)">
				<g>
					<path fill="#0F0A35" d="M80.151,91.686c-0.501-0.957,0.142-1.385,0.15-2.291c0.007-0.607-0.258-1.287-0.716-1.695
						c-0.033-0.029-0.09-0.002-0.077,0.045c0.114,0.379,0.266,0.748,0.384,1.125c0.178,0.563-0.169,1.146-0.306,1.674
						c-0.134,0.52,0.094,0.9,0.483,1.203C80.115,91.781,80.18,91.738,80.151,91.686L80.151,91.686z"/>
				</g>
			</g>
			<g clip-path="url(#SVGID_6_)">
				<g>
					<path fill="#0F0A35" d="M81.543,91.039c0.495-0.227,0.462-0.857,0.396-1.32c-0.077-0.545-0.181-1.09,0.22-1.545
						c0.291-0.328,0.733-0.266,1.087-0.449c0.096-0.051,0.055-0.172-0.026-0.207c-0.626-0.262-1.288,0.32-1.533,0.855
						c-0.15,0.326-0.125,0.695-0.08,1.041c0.078,0.598,0.128,0.975-0.169,1.52C81.398,91.006,81.474,91.07,81.543,91.039
						L81.543,91.039z"/>
				</g>
			</g>
			<g clip-path="url(#SVGID_6_)">
				<g>
					<path fill="#0F0A35" d="M82.271,90.393c0.411-0.213,0.494-0.619,0.545-1.057c0.047-0.408,0.106-0.752,0.322-1.111
						c0.234-0.391,0.645-0.576,0.984-0.85c0.046-0.037-0.005-0.1-0.052-0.09c-0.569,0.119-1.023,0.629-1.283,1.123
						c-0.311,0.592-0.087,1.385-0.591,1.889C82.147,90.348,82.211,90.426,82.271,90.393L82.271,90.393z"/>
				</g>
			</g>
			<g clip-path="url(#SVGID_6_)">
				<g>
					<path fill="#0F0A35" d="M82.899,90.139c0.539,0.064,0.669-0.742,0.844-1.094c0.339-0.676,1.114-0.785,1.759-0.926
						c0.057-0.012,0.067-0.084,0.032-0.123c-0.353-0.385-1.144,0.076-1.479,0.285c-0.245,0.154-0.432,0.359-0.578,0.609
						c-0.177,0.305-0.217,1.002-0.595,1.127C82.814,90.041,82.833,90.131,82.899,90.139L82.899,90.139z"/>
				</g>
			</g>
			<g clip-path="url(#SVGID_6_)">
				<g>
					<path fill="#0F0A35" d="M83.462,90.387c0.311-0.527,0.886-0.594,1.351-0.928c0.313-0.227,0.704-0.664,0.706-1.068
						c0.001-0.055-0.069-0.084-0.108-0.045c-0.193,0.197-0.292,0.471-0.473,0.684c-0.206,0.242-0.475,0.389-0.762,0.512
						c-0.367,0.156-0.778,0.383-0.79,0.826C83.385,90.408,83.441,90.422,83.462,90.387L83.462,90.387z"/>
				</g>
			</g>
			<g clip-path="url(#SVGID_6_)">
				<g>
					<path fill="#0F0A35" d="M82.861,90.564c0.4,0.357,0.925,0.516,1.445,0.285c0.714-0.316,0.964-1.025,1.607-1.42
						c0.063-0.039,0.037-0.137-0.037-0.139c-0.388-0.006-0.627,0.262-0.848,0.555c-0.587,0.775-1.194,0.953-2.151,0.688
						C82.861,90.529,82.847,90.551,82.861,90.564L82.861,90.564z"/>
				</g>
			</g>
			<g clip-path="url(#SVGID_6_)">
				<g>
					<path fill="#0F0A35" d="M79.356,91.246c-0.151-0.094-0.229-0.648-0.28-0.816c-0.178-0.568-0.042-1.07,0.105-1.619
						c0.13-0.486-0.128-0.85-0.443-1.186c-0.056-0.059-0.143,0.004-0.128,0.074c0.095,0.469,0.337,0.732,0.188,1.256
						c-0.101,0.357-0.189,0.697-0.13,1.074c0.059,0.383,0.146,1.248,0.626,1.363C79.384,91.412,79.434,91.295,79.356,91.246
						L79.356,91.246z"/>
				</g>
			</g>
			<g clip-path="url(#SVGID_6_)">
				<g>
					<path fill="#0F0A35" d="M78.251,90.51c-0.55-0.576-0.1-1.584-0.279-2.301c-0.131-0.521-0.6-1.082-1.137-1.186
						c-0.067-0.014-0.126,0.053-0.09,0.115c0.168,0.301,0.447,0.512,0.652,0.789c0.258,0.348,0.285,0.787,0.281,1.203
						c-0.005,0.559,0.061,1.074,0.547,1.412C78.246,90.557,78.267,90.527,78.251,90.51L78.251,90.51z"/>
				</g>
			</g>
			<g clip-path="url(#SVGID_6_)">
				<g>
					<path fill="#0F0A35" d="M77.246,90.24c-0.306-0.645-0.033-1.359-0.312-2.018c-0.177-0.418-0.614-0.941-1.055-1.074
						c-0.04-0.012-0.087,0.029-0.071,0.072c0.205,0.553,0.777,0.854,0.964,1.449c0.188,0.604-0.028,1.092,0.405,1.623
						C77.211,90.332,77.266,90.281,77.246,90.24L77.246,90.24z"/>
				</g>
			</g>
			<g clip-path="url(#SVGID_6_)">
				<g>
					<path fill="#0F0A35" d="M76.497,90.223c-0.565-0.041-0.447-1.174-0.563-1.58c-0.147-0.514-0.547-1.143-1.123-1.197
						c-0.057-0.006-0.096,0.068-0.065,0.115c0.225,0.34,0.58,0.551,0.807,0.902c0.188,0.287,0.231,0.6,0.29,0.928
						c0.064,0.357,0.214,0.904,0.655,0.908C76.547,90.301,76.546,90.227,76.497,90.223L76.497,90.223z"/>
				</g>
			</g>
			<g clip-path="url(#SVGID_6_)">
				<g>
					<path fill="#0F0A35" d="M75.519,90.33c-0.389-0.172-0.496-0.977-0.696-1.338c-0.238-0.43-0.61-0.902-1.144-0.895
						c-0.076,0.002-0.104,0.086-0.059,0.141c0.184,0.217,0.414,0.385,0.61,0.592c0.214,0.225,0.361,0.512,0.499,0.785
						c0.154,0.307,0.367,0.783,0.767,0.795C75.537,90.412,75.559,90.348,75.519,90.33L75.519,90.33z"/>
				</g>
			</g>
			<g clip-path="url(#SVGID_6_)">
				<g>
					<path fill="#0F0A35" d="M75.03,92.164c0.264-0.58,0.109-1.033-0.259-1.537c-0.227-0.311-0.569-0.537-0.827-0.822
						c-0.4-0.443-0.345-0.941-0.496-1.465c-0.021-0.07-0.128-0.092-0.164-0.021c-0.255,0.514-0.031,1.072,0.27,1.525
						c0.552,0.834,1.526,1.131,1.458,2.314C75.011,92.168,75.026,92.174,75.03,92.164L75.03,92.164z"/>
				</g>
			</g>
			<g clip-path="url(#SVGID_6_)">
				<g>
					<path fill="#0F0A35" d="M74.446,92.344c0.058-0.57-0.15-0.926-0.542-1.338c-0.313-0.328-0.685-0.473-0.87-0.926
						c-0.105-0.258-0.118-0.477-0.32-0.672c-0.055-0.053-0.155-0.018-0.152,0.063c0.013,0.439,0.18,0.869,0.458,1.207
						c0.48,0.58,1.208,0.836,1.367,1.674C74.393,92.387,74.443,92.375,74.446,92.344L74.446,92.344z"/>
				</g>
			</g>
		</g>
		<g>
			<defs>
				<path id="SVGID_7_" d="M69.857,97.902c-0.327-0.449-0.967-1.596-1.29-2.047c-0.625-0.875-0.876-1.879-1.836-2.361
					c-0.466-0.234-1.072-0.365-1.581-0.475c-0.509-0.111-0.851-0.346-1.089-0.809c-0.279-0.543-0.379-1.074-0.053-1.967
					c0.129-0.352,0.738-1.09,2.431-1.262c0.462-0.047,1.155-0.109,2.013-0.057c1.065,0.066,0.989,0.088,2.056,0.088
					c0.737,0,0.737,0.035,1.019,0.703c0.189,0.449,0.485,2.121,0.703,2.881c0.078,0.273,1.023,4.254,1.184,4.84
					c0.126,0.459,0.251,0.92,0.377,1.379c0.068,0.252,0.135,0.531,0.022,0.766c-0.17,0.355-0.636,0.422-1.027,0.441
					c-0.271,0.016-0.543,0.029-0.814,0.043c-0.11,0.006-0.223,0.012-0.327-0.021c-0.129-0.039-0.058-0.344-0.152-0.439
					C70.753,98.85,70.48,98.756,69.857,97.902z"/>
			</defs>
			<clipPath id="SVGID_8_">
				<use xlink:href="#SVGID_7_"  overflow="visible"/>
			</clipPath>
			<g clip-path="url(#SVGID_8_)">
				<g>
					<path fill="#0F0A35" d="M73.517,99.549c-1.057-0.807-0.526-1.443-0.527-2.371c0-0.199-0.149-0.535-0.332-0.633
						c-1.516-0.82-0.301-2.154-0.572-3.377c-0.079-0.354-0.528-0.791-0.724-1.068c-0.644-0.908-0.409-1.664-0.186-2.631
						c0.172-0.74-0.22-1.451-0.818-1.852c-0.072-0.049-0.181,0.033-0.15,0.115c0.25,0.689,0.657,1.117,0.477,1.926
						c-0.097,0.428-0.34,0.844-0.248,1.299c0.124,0.615,0.384,1.105,0.753,1.609c0.421,0.572,0.693,0.621,0.531,1.564
						c-0.056,0.328-0.218,0.637-0.245,0.971c-0.1,1.252,1.355,1.76,1.093,2.926c-0.162,0.727,0.152,1.51,0.927,1.607
						C73.545,99.641,73.548,99.572,73.517,99.549L73.517,99.549z"/>
				</g>
			</g>
			<g clip-path="url(#SVGID_8_)">
				<g>
					<path fill="#0F0A35" d="M72.245,99.635c-0.438-0.088,0.122-1.813-0.322-2.252c-0.595-0.59-1.328-1.061-1.028-2.094
						c0.126-0.434,0.33-0.914,0.212-1.377c-0.354-1.398-1.68-1.838-1.247-3.547c0.207-0.818,0.555-1.73-0.227-2.33
						c-0.064-0.051-0.138,0.043-0.104,0.104c0.682,1.264-0.472,2.559,0.018,3.904c0.128,0.352,0.42,0.658,0.657,0.936
						c0.711,0.834,0.56,1.564,0.288,2.551c-0.231,0.842,0.231,1.309,0.867,1.746c1.051,0.723-0.093,1.957,0.693,2.529
						c0.03,0.021,0.075,0.016,0.105,0c0.035-0.02,0.068-0.039,0.103-0.059C72.304,99.723,72.298,99.645,72.245,99.635L72.245,99.635
						z"/>
				</g>
			</g>
			<g clip-path="url(#SVGID_8_)">
				<g>
					<path fill="#0F0A35" d="M71.096,99.852c0.593-0.473,0.09-1.318-0.239-1.809c-0.342-0.506-0.828-0.742-1.035-1.377
						c-0.26-0.795,0.296-1.451,0.205-2.225c-0.173-1.475-2.053-1.797-1.473-3.574c0.416-1.27,1.091-2.104,0.36-3.432
						c-0.031-0.057-0.128-0.033-0.123,0.033c0.056,0.863,0.209,1.553-0.254,2.377c-0.277,0.492-0.49,0.957-0.591,1.514
						c-0.141,0.783,0.439,1.471,0.908,2.02c0.563,0.658,0.832,1.262,0.527,2.104c-0.147,0.41-0.06,0.887,0.021,1.299
						c0.209,1.082,2.158,1.67,1.576,2.98C70.944,99.84,71.028,99.904,71.096,99.852L71.096,99.852z"/>
				</g>
			</g>
			<g clip-path="url(#SVGID_8_)">
				<g>
					<path fill="#0F0A35" d="M68.339,96.568c1.027-1.291,0.182-2.719-0.799-3.666c-1.314-1.27-0.117-2.443,0.396-3.699
						c0.244-0.598,0.24-1.436-0.349-1.795c-0.069-0.043-0.18,0.029-0.146,0.113c0.728,1.803-1.281,2.881-0.831,4.715
						c0.132,0.539,0.657,0.955,1.041,1.311c0.893,0.828,0.835,1.848,0.546,2.939C68.178,96.563,68.284,96.639,68.339,96.568
						L68.339,96.568z"/>
				</g>
			</g>
			<g clip-path="url(#SVGID_8_)">
				<g>
					<path fill="#0F0A35" d="M67.253,94.318c-0.063-0.49-0.287-0.807-0.632-1.158c-0.784-0.803-1.178-1.549-0.563-2.596
						c0.421-0.717,1.148-1.521,0.553-2.348c-0.046-0.064-0.156-0.047-0.156,0.043c0,0.756-0.225,1.262-0.637,1.883
						c-0.221,0.332-0.497,0.754-0.508,1.172c-0.04,1.508,1.151,1.869,1.839,3.033C67.175,94.391,67.261,94.377,67.253,94.318
						L67.253,94.318z"/>
				</g>
			</g>
			<g clip-path="url(#SVGID_8_)">
				<g>
					<path fill="#0F0A35" d="M65.507,93.771c-0.567-0.787-1.071-1.391-0.819-2.426c0.168-0.691,0.668-1.229,0.803-1.947
						c0.122-0.652-0.063-1.465-0.748-1.668c-0.081-0.023-0.149,0.088-0.085,0.146c1.224,1.096-0.135,2.496-0.383,3.674
						c-0.209,0.994,0.454,1.699,1.144,2.289C65.464,93.879,65.547,93.826,65.507,93.771L65.507,93.771z"/>
				</g>
			</g>
		</g>
		<g>
			<path fill="#990F28" d="M70.929,98.709c-0.076-0.014-0.16-0.029-0.231,0.004c-0.061,0.029-0.102,0.09-0.139,0.146
				c-0.377,0.584-0.575,1.123-0.918,1.699c-0.057,0.096-0.012,0.223,0.096,0.254c3.3,0.936,7.938,0.689,10.583,0.09
				c0.069-0.016,0.143-0.043,0.185-0.102c0.079-0.109,0-0.26-0.078-0.369c-0.28-0.398-0.561-0.797-0.842-1.195
				c-0.069-0.098-0.146-0.203-0.259-0.244S72.572,99.041,70.929,98.709z"/>
		</g>
		<g>
			<g>
				<path fill="#0F0A35" d="M79.017,99.633c-0.278,0-0.51,0.23-0.51,0.508s0.231,0.51,0.51,0.51c0.276,0,0.508-0.232,0.508-0.51
					S79.293,99.633,79.017,99.633L79.017,99.633z"/>
			</g>
		</g>
		<g>
			<g>
				<path fill="#0F0A35" d="M77.387,99.756c-0.227-0.158-0.604-0.113-0.778,0.107c-0.128,0.162-0.202,0.334-0.145,0.545
					c0.054,0.195,0.203,0.33,0.392,0.393c0.229,0.074,0.478,0.002,0.645-0.166C77.771,100.365,77.68,99.961,77.387,99.756
					L77.387,99.756z"/>
			</g>
		</g>
		<g>
			<g>
				<path fill="#0F0A35" d="M74.506,99.891c-0.003,0.008-0.008,0.016-0.012,0.023c-0.178,0.344-0.03,0.779,0.361,0.887
					c0.357,0.098,0.795-0.186,0.765-0.582c0-0.01-0.001-0.018-0.002-0.025c-0.021-0.268-0.168-0.502-0.438-0.576
					C74.933,99.549,74.628,99.656,74.506,99.891L74.506,99.891z"/>
			</g>
		</g>
		<g>
			<g>
				<path fill="#0F0A35" d="M72.962,99.582c-0.294,0-0.538,0.246-0.538,0.539s0.244,0.539,0.538,0.539
					c0.293,0,0.539-0.246,0.539-0.539S73.255,99.582,72.962,99.582L72.962,99.582z"/>
			</g>
		</g>
		<g>
			<g>
				<path fill="#0F0A35" d="M71.043,99.457c-0.229,0-0.421,0.191-0.421,0.422c0,0.229,0.191,0.42,0.421,0.42
					c0.23,0,0.422-0.191,0.422-0.42C71.465,99.648,71.273,99.457,71.043,99.457L71.043,99.457z"/>
			</g>
		</g>
		<g>
			<g>
				<path fill="#0F0A35" d="M77.467,103.119c0.012-0.127,0.093-0.256,0.047-0.383c-0.03-0.082-0.136-0.102-0.184-0.025
					c-0.076,0.123-0.039,0.295-0.008,0.428C77.341,103.225,77.461,103.197,77.467,103.119L77.467,103.119z"/>
			</g>
		</g>
		<g>
			<g>
				<path fill="#0F0A35" d="M75.962,102.348c0.054-0.086,0.044-0.158,0.046-0.258c0.002-0.154-0.248-0.15-0.234,0
					c0.009,0.098,0.021,0.174,0.074,0.258C75.874,102.391,75.936,102.393,75.962,102.348L75.962,102.348z"/>
			</g>
		</g>
		<g>
			<g>
				<path fill="#0F0A35" d="M76.28,104.436c0.056-0.164,0.093-0.328,0.068-0.504c-0.017-0.113-0.213-0.113-0.229,0
					c-0.024,0.176,0.013,0.34,0.067,0.504C76.202,104.482,76.266,104.482,76.28,104.436L76.28,104.436z"/>
			</g>
		</g>
		<g>
			<g>
				<path fill="#0F0A35" d="M74.881,103.568c0.02-0.129,0.069-0.332-0.054-0.422c-0.027-0.02-0.063-0.002-0.08,0.021
					c-0.072,0.1,0.002,0.289,0.021,0.4C74.776,103.625,74.872,103.625,74.881,103.568L74.881,103.568z"/>
			</g>
		</g>
		<g>
			<g>
				<path fill="#0F0A35" d="M73.995,104.389c0.065-0.117,0.069-0.23,0.044-0.361c-0.029-0.156-0.285-0.121-0.277,0.037
					c0.003,0.053,0.013,0.096,0.029,0.146c0.021,0.061,0.067,0.104,0.091,0.162C73.901,104.42,73.966,104.439,73.995,104.389
					L73.995,104.389z"/>
			</g>
		</g>
		<g>
			<g>
				<path fill="#0F0A35" d="M73.677,102.121c0.021-0.094,0.04-0.195,0.035-0.293c-0.006-0.145-0.231-0.145-0.225,0
					c0.005,0.102,0.04,0.195,0.061,0.293C73.562,102.186,73.663,102.186,73.677,102.121L73.677,102.121z"/>
			</g>
		</g>
		<g>
			<g>
				<path fill="#0F0A35" d="M72.862,103.172c0.003-0.021,0.021-0.043,0.026-0.064c0.011-0.037,0.017-0.09,0.019-0.131
					c0.004-0.094,0.003-0.188-0.067-0.258c-0.058-0.057-0.161-0.049-0.2,0.025c-0.046,0.086-0.027,0.178-0.007,0.27
					c0.021,0.094,0.071,0.139,0.138,0.195C72.809,103.242,72.856,103.219,72.862,103.172L72.862,103.172z"/>
			</g>
		</g>
		<g>
			<g>
				<path fill="#0F0A35" d="M72.088,101.92c-0.014-0.133,0.036-0.299-0.044-0.414c-0.074-0.107-0.253-0.045-0.217,0.092
					c0.018,0.064,0.057,0.113,0.092,0.17c0.034,0.057,0.058,0.117,0.089,0.174C72.026,101.979,72.093,101.963,72.088,101.92
					L72.088,101.92z"/>
			</g>
		</g>
		<g>
			<g>
				<path fill="#0F0A35" d="M78.319,101.936c0.022-0.145,0.108-0.375-0.018-0.49c-0.023-0.021-0.055-0.021-0.079,0
					c-0.126,0.115-0.039,0.346-0.017,0.49C78.215,101.992,78.31,101.992,78.319,101.936L78.319,101.936z"/>
			</g>
		</g>
		<g>
			<g>
				<path fill="#F31033" d="M79.001,99.994c-0.209,0-0.209,0.322,0,0.322C79.208,100.316,79.208,99.994,79.001,99.994L79.001,99.994
					z"/>
			</g>
		</g>
		<g>
			<g>
				<path fill="#F31033" d="M77.038,100.146c-0.183,0-0.183,0.281,0,0.281C77.219,100.428,77.219,100.146,77.038,100.146
					L77.038,100.146z"/>
			</g>
		</g>
		<g>
			<g>
				<path fill="#F31033" d="M74.995,99.984c-0.253,0-0.253,0.395,0,0.395C75.249,100.379,75.249,99.984,74.995,99.984L74.995,99.984
					z"/>
			</g>
		</g>
		<g>
			<g>
				<path fill="#F31033" d="M72.94,99.932c-0.237,0-0.237,0.367,0,0.367S73.178,99.932,72.94,99.932L72.94,99.932z"/>
			</g>
		</g>
		<g>
			<g>
				<path fill="#F31033" d="M71.057,99.697c-0.234,0-0.234,0.361,0,0.361S71.291,99.697,71.057,99.697L71.057,99.697z"/>
			</g>
		</g>
		<g>
			<g>
				<path fill="#F31033" d="M74.951,85.203c0.37-1.49,0.356-3.547-0.312-4.959c-0.336-0.711-1.36-0.092-1.047,0.613
					c0.571,1.283,0.807,2.904,0.967,4.293C74.583,85.359,74.893,85.438,74.951,85.203L74.951,85.203z"/>
			</g>
		</g>
		<g>
			<g>
				<path fill="#F31033" d="M71.448,85.959c0.097-0.971-0.271-1.883-0.701-2.732c-0.327-0.646-1.066-2.053-1.926-1.959
					c-0.272,0.029-0.454,0.195-0.475,0.475c-0.052,0.686,0.832,1.35,1.215,1.861c0.573,0.77,0.99,1.633,1.444,2.475
					C71.128,86.305,71.426,86.176,71.448,85.959L71.448,85.959z"/>
			</g>
		</g>
		<g>
			<g>
				<path fill="#0F0A35" d="M77.291,85.578c0.25-0.725,0.396-1.441,0.501-2.201c0.096-0.693,0.293-1.426,0.201-2.127
					c-0.073-0.551-0.959-0.811-1.075-0.145c-0.252,1.453-0.048,2.951-0.063,4.414C76.852,85.779,77.212,85.809,77.291,85.578
					L77.291,85.578z"/>
			</g>
		</g>
		<g>
			<g>
				<path fill="#0F0A35" d="M73.526,86.027c0.195-1.113-0.051-2.16-0.341-3.236c-0.196-0.729-0.541-1.963-1.292-2.271
					c-0.639-0.26-0.95,0.619-0.604,1.039c0.353,0.428,0.577,1.186,0.819,1.688c0.43,0.889,0.742,1.824,0.983,2.781
					C73.145,86.232,73.486,86.252,73.526,86.027L73.526,86.027z"/>
			</g>
		</g>
		<g>
			<g>
				<path fill="#0F0A35" d="M69.669,85.73c0.122-0.908-0.487-1.535-1.089-2.133c-0.527-0.525-0.97-1.307-1.778-1.375
					c-0.779-0.063-0.795,1.24,0,1.221c0.287-0.008,0.744,0.576,0.976,0.752c0.454,0.344,1.408,0.904,1.479,1.535
					C69.286,85.998,69.635,85.992,69.669,85.73L69.669,85.73z"/>
			</g>
		</g>
		<g>
			<g>
				<path fill="#0F0A35" d="M74.758,83.613c-0.316,0-0.316,0.49,0,0.49S75.074,83.613,74.758,83.613L74.758,83.613z"/>
			</g>
		</g>
		<g>
			<g>
				<path fill="#0F0A35" d="M74.679,82.504c-0.355,0-0.355,0.551,0,0.551C75.035,83.055,75.035,82.504,74.679,82.504L74.679,82.504z
					"/>
			</g>
		</g>
		<g>
			<g>
				<path fill="#0F0A35" d="M74.349,81.568c-0.003,0.002-0.005,0.004-0.007,0.006c-0.111,0.107-0.111,0.299,0,0.408
					c0.002,0.002,0.004,0.002,0.007,0.006c0.184,0.18,0.506,0.051,0.506-0.211S74.532,81.389,74.349,81.568L74.349,81.568z"/>
			</g>
		</g>
		<g>
			<g>
				<path fill="#0F0A35" d="M74.358,80.957c0.005-0.004,0.01-0.01,0.015-0.014c0.077-0.07,0.077-0.211,0-0.281
					c-0.005-0.004-0.01-0.01-0.015-0.014c-0.137-0.125-0.371-0.041-0.371,0.154S74.222,81.084,74.358,80.957L74.358,80.957z"/>
			</g>
		</g>
		<g>
			<g>
				<path fill="#0F0A35" d="M71.017,84.947c-0.296,0-0.296,0.459,0,0.459C71.313,85.406,71.313,84.947,71.017,84.947L71.017,84.947z
					"/>
			</g>
		</g>
		<g>
			<g>
				<path fill="#0F0A35" d="M70.695,84.045c-0.343,0-0.343,0.533,0,0.533C71.039,84.578,71.039,84.045,70.695,84.045L70.695,84.045z
					"/>
			</g>
		</g>
		<g>
			<g>
				<path fill="#0F0A35" d="M70.169,83.059c-0.189,0-0.348,0.158-0.348,0.348s0.158,0.348,0.348,0.348s0.348-0.158,0.348-0.348
					S70.358,83.059,70.169,83.059L70.169,83.059z"/>
			</g>
		</g>
		<g>
			<g>
				<path fill="#0F0A35" d="M69.516,82.275c-0.175,0-0.319,0.145-0.319,0.318c0,0.176,0.145,0.32,0.319,0.32
					c0.174,0,0.319-0.145,0.319-0.32C69.835,82.42,69.689,82.275,69.516,82.275L69.516,82.275z"/>
			</g>
		</g>
		<g>
			<g>
				<path fill="#0F0A35" d="M68.957,81.764c-0.302,0-0.302,0.469,0,0.469C69.261,82.232,69.261,81.764,68.957,81.764L68.957,81.764z
					"/>
			</g>
		</g>
		<g>
			<g>
				<g>
					<path fill="#0F0A35" d="M69.024,81.643c-0.078-0.066-0.155-0.133-0.233-0.199c-0.064-0.055-0.124-0.135-0.216-0.113
						c-0.04,0.01-0.06,0.035-0.06,0.076c0.001,0.094,0.092,0.133,0.16,0.184c0.083,0.061,0.165,0.121,0.247,0.18
						C69.008,81.832,69.104,81.711,69.024,81.643L69.024,81.643z"/>
				</g>
			</g>
			<g>
				<g>
					<path fill="#0F0A35" d="M66.311,80.811c-0.039,0.104-0.093,0.197-0.147,0.293c-0.05,0.086-0.094,0.168-0.043,0.264
						c0.014,0.027,0.048,0.053,0.079,0.035c0.096-0.051,0.115-0.123,0.148-0.223c0.038-0.109,0.076-0.217,0.097-0.332
						C66.458,80.77,66.339,80.736,66.311,80.811L66.311,80.811z"/>
				</g>
			</g>
			<g>
				<g>
					<path fill="#0F0A35" d="M67.105,79.031c-0.117,0.037-0.235,0.074-0.354,0.107c-0.105,0.029-0.246,0.082-0.331,0.15
						c-0.096,0.076-0.063,0.234,0.063,0.252c0.284,0.041,0.48-0.244,0.7-0.369C67.268,79.123,67.188,79.002,67.105,79.031
						L67.105,79.031z"/>
				</g>
			</g>
			<g>
				<g>
					<path fill="#0F0A35" d="M59.534,77.502c-0.054,0.131-0.104,0.264-0.16,0.395c-0.046,0.107-0.106,0.221-0.066,0.338
						c0.015,0.043,0.061,0.053,0.1,0.043c0.123-0.031,0.177-0.168,0.214-0.277c0.046-0.135,0.081-0.273,0.123-0.41
						S59.591,77.363,59.534,77.502L59.534,77.502z"/>
				</g>
			</g>
			<g>
				<path fill="#F31033" d="M67.788,82.701c0.795-0.867,1.753-1.686,2.072-2.818c0.192-0.689,0.079-1.426-0.097-2.121
					c-0.202-0.803-0.488-1.594-0.946-2.283c-0.457-0.689-1.452-1.619-2.222-1.924c-1.165-0.463-2.37-0.758-3.617-0.624
					c-1.451,0.158-2.718,1.34-3.357,2.653c-0.639,1.313-1.061,3.227-0.597,4.612c0.052,0.156,0.11,0.311,0.168,0.465
					c0.598,1.586,2.099,2.955,3.702,3.502C64.035,84.553,65.677,85.002,67.788,82.701z"/>
			</g>
			<g>
				<path fill="#B70327" d="M70.052,79.656c0.01-0.762-0.093-1.43-0.473-1.946c-0.804-1.095-2.352-2.213-3.465-2.992
					c-0.092-0.064-0.189-0.129-0.301-0.145c-0.11-0.015-0.239,0.037-0.275,0.142c-0.005,0.014-0.008,0.028-0.009,0.042
					c-0.028,0.236,0.063,0.47,0.203,0.662c0.904,1.241,1.277,1.265,2.462,2.929c0.333,0.465-0.383,0.736-0.627,0.504
					c-0.812-0.773-1.229-1.219-2.04-1.992c-0.381-0.363-0.945-0.773-1.425-0.97c-0.188-0.077-0.453,0.265-0.384,0.455
					c0.22,0.612,0.724,1.187,1.251,1.61c0.521,0.42,1.534,1.084,1.825,1.631c0.248,0.465-0.18,0.855-0.233,0.818
					c-1.386-0.955-2.443-1.854-3.578-2.342c-0.289-0.125-0.935,0.434,0.155,1.291c1.265,0.996,1.855,1.18,2.804,2.096
					c0.259,0.248-0.178,0.764-0.522,0.662c-0.107-0.031-1.56-1.219-3.07-1.805c-0.229-0.09-0.757-0.174-0.81,0.053
					c-0.113,0.486,0.617,1.105,1.208,1.488c0.639,0.416,1.64,1.148,2.323,1.486c0.511,0.252,1.501,0.48,2.987-0.383
					c0.606-0.352,1.071-0.844,1.417-1.455C69.821,80.887,70.043,80.357,70.052,79.656z"/>
			</g>
			<g>
				<g>
					<path fill="#0F0A35" d="M60.421,79.359c-0.148,0.189-0.115,0.469,0.072,0.617c0.188,0.146,0.468,0.113,0.615-0.074
						c0.148-0.188,0.115-0.467-0.072-0.615S60.568,79.172,60.421,79.359L60.421,79.359z"/>
				</g>
			</g>
			<g>
				<g>
					<path fill="#0F0A35" d="M60.318,78.695c-0.006-0.006-0.012-0.012-0.017-0.018C60.198,78.572,60,78.59,59.89,78.672
						c-0.135,0.1-0.199,0.34-0.072,0.475c0.005,0.006,0.011,0.012,0.017,0.018c0.127,0.135,0.313,0.191,0.475,0.072
						c0.073-0.055,0.124-0.137,0.136-0.227C60.463,78.879,60.405,78.783,60.318,78.695L60.318,78.695z"/>
				</g>
			</g>
			<g>
				<g>
					<path fill="#0F0A35" d="M59.374,78.115c-0.155,0.197,0.151,0.439,0.307,0.242C59.837,78.16,59.53,77.918,59.374,78.115
						L59.374,78.115z"/>
				</g>
			</g>
			<g>
				<g>
					<path fill="#0F0A35" d="M61.601,77.412c-0.141,0.18-0.109,0.447,0.07,0.59c0.18,0.141,0.447,0.109,0.589-0.07
						c0.141-0.18,0.109-0.447-0.07-0.589S61.743,77.233,61.601,77.412L61.601,77.412z"/>
				</g>
			</g>
			<g>
				<g>
					<path fill="#0F0A35" d="M60.818,76.835c-0.268,0.34,0.26,0.755,0.527,0.415C61.614,76.91,61.087,76.495,60.818,76.835
						L60.818,76.835z"/>
				</g>
			</g>
			<g>
				<g>
					<path fill="#0F0A35" d="M60.205,76.543c-0.122,0.156,0.119,0.346,0.242,0.19C60.569,76.578,60.327,76.388,60.205,76.543
						L60.205,76.543z"/>
				</g>
			</g>
			<g>
				<g>
					<path fill="#0F0A35" d="M63.191,76.041c0.008-0.004,0.016-0.008,0.023-0.012c0.134-0.07,0.233-0.168,0.256-0.325
						c0.02-0.143-0.039-0.289-0.152-0.378s-0.27-0.112-0.403-0.06c-0.147,0.058-0.22,0.179-0.256,0.325
						c-0.002,0.008-0.005,0.017-0.006,0.025C62.585,75.894,62.938,76.172,63.191,76.041L63.191,76.041z"/>
				</g>
			</g>
			<g>
				<g>
					<path fill="#0F0A35" d="M62.009,75.084c-0.094,0.117-0.073,0.292,0.045,0.385c0.117,0.092,0.293,0.072,0.385-0.046
						c0.094-0.118,0.072-0.292-0.045-0.385C62.275,74.946,62.101,74.967,62.009,75.084L62.009,75.084z"/>
				</g>
			</g>
			<g>
				<g>
					<path fill="#0F0A35" d="M64.409,73.904c-0.121,0.152-0.094,0.379,0.059,0.5c0.152,0.12,0.379,0.093,0.499-0.059
						c0.12-0.152,0.093-0.379-0.06-0.499C64.756,73.725,64.528,73.752,64.409,73.904L64.409,73.904z"/>
				</g>
			</g>
			<g>
				<g>
					<path fill="#0F0A35" d="M63.613,73.7c-0.186,0.235,0.179,0.523,0.365,0.288C64.164,73.752,63.798,73.464,63.613,73.7
						L63.613,73.7z"/>
				</g>
			</g>
			<g>
				<g>
					<path fill="#0F0A35" d="M62.799,73.634c-0.151,0.19,0.146,0.424,0.297,0.233C63.246,73.676,62.949,73.443,62.799,73.634
						L62.799,73.634z"/>
				</g>
			</g>
			<g>
				<g>
					<path fill="#0F0A35" d="M67.597,80.305c-0.258,0.129-0.431,0.215-0.556,0.494c-0.126,0.283-0.067,0.617,0.046,0.895
						c0.271,0.668,0.966,0.969,1.644,0.785c0.659-0.18,1.084-0.996,1.091-1.635c0.008-0.816-0.53-1.377-1.357-1.334
						c-1.191,0.063-2.105,2.244-0.863,2.855c0.783,0.385,1.497-0.234,1.689-0.979c0.093-0.357,0.047-0.717-0.15-1.031
						c-0.198-0.32-0.676-0.559-1.011-0.268c-0.311,0.271-0.413,0.691-0.44,1.09c-0.051,0.715,1.056,0.877,1.108,0.154
						c0-0.031,0.004-0.061,0.011-0.092c-0.039,0.09-0.077,0.18-0.115,0.27c0.095-0.141,0.116-0.244,0.116-0.412
						c-0.001-0.652-1.014-0.617-1.109-0.012c-0.006,0.031-0.01,0.061-0.011,0.092c0.369,0.051,0.739,0.104,1.108,0.154
						c0.009-0.125,0.028-0.246,0.055-0.367c-0.02,0.09,0.028-0.07,0.029-0.074c-0.11,0.275-0.775-0.186-0.649,0.135
						c0.01,0.025-0.067,0.219-0.099,0.283c-0.005,0.01-0.08,0.074-0.037,0.053c0.039-0.02-0.092-0.033-0.013-0.004
						c0.033,0.012,0.062,0.102,0.05,0.012c-0.006-0.049,0.02-0.172,0.043-0.242c0.053-0.154,0.093-0.217,0.167-0.32
						c0.069-0.096,0.049-0.07,0.101-0.115c0.029-0.023,0.059-0.047,0.09-0.066c-0.048,0.025-0.042,0.025,0.016-0.002
						c-0.096,0.039,0.013-0.008,0.062-0.006c0.118,0.004,0.015-0.029,0.086,0.025c-0.077-0.061,0.016,0.074,0.016,0.115
						c-0.002,0.252-0.113,0.564-0.325,0.668c-0.076,0.037-0.14,0.014-0.182-0.002c-0.063-0.021-0.213-0.135-0.27-0.199
						c-0.147-0.164-0.2-0.451-0.082-0.574C68.007,80.492,67.791,80.207,67.597,80.305L67.597,80.305z"/>
				</g>
			</g>
			<g>
				<g>
					<path fill="#990F28" d="M68.209,80.854c-0.245,0.311,0.237,0.691,0.482,0.381C68.937,80.922,68.454,80.543,68.209,80.854
						L68.209,80.854z"/>
				</g>
			</g>
			<g>
				<g>
					<path fill="#990F28" d="M67.422,81.041c-0.164,0.209,0.16,0.463,0.324,0.254C67.911,81.086,67.587,80.832,67.422,81.041
						L67.422,81.041z"/>
				</g>
			</g>
			<g>
				<g>
					<path fill="#990F28" d="M67.857,81.689c-0.149,0.189,0.143,0.42,0.293,0.23C68.298,81.732,68.006,81.502,67.857,81.689
						L67.857,81.689z"/>
				</g>
			</g>
			<g>
				<g>
					<path fill="#990F28" d="M69.03,81.945c0.004-0.006,0.009-0.01,0.015-0.014c0.095-0.092,0.08-0.215-0.034-0.281
						c-0.005-0.004-0.011-0.006-0.017-0.01c-0.118-0.068-0.256,0.064-0.241,0.184C68.767,81.941,68.931,82.039,69.03,81.945
						L69.03,81.945z"/>
				</g>
			</g>
			<g>
				<g>
					<path fill="#990F28" d="M69.225,80.848c-0.14,0.178,0.137,0.396,0.276,0.217C69.641,80.889,69.365,80.67,69.225,80.848
						L69.225,80.848z"/>
				</g>
			</g>
			<g>
				<g>
					<path fill="#990F28" d="M68.906,80.098c-0.134,0.17,0.128,0.375,0.262,0.207C69.301,80.135,69.039,79.93,68.906,80.098
						L68.906,80.098z"/>
				</g>
			</g>
			<g>
				<g>
					<path fill="#990F28" d="M67.998,80.072c-0.136,0.174,0.132,0.387,0.27,0.213C68.403,80.111,68.135,79.9,67.998,80.072
						L67.998,80.072z"/>
				</g>
			</g>
		</g>
		<g>
			<g>
				<g>
					<path fill="#222272" d="M71.732,73.941c0.393,1.255,2.166,1.94,3.161,2.663c0.745,0.541,1.705,0.648,2.388-0.086
						c0.772-0.833,0.486-2.103-0.458-2.649c-1.15-0.666-2.34-1.304-3.55-1.853c-2.061-0.934-3.58,1.971-1.622,3.113
						c1.15,0.67,2.403,1.184,3.612,1.736c0.378-1.05,0.756-2.099,1.134-3.149c-0.688-0.222-1.388-0.412-2.095-0.562
						c-0.674-0.144-1.395-0.399-2.072-0.17C71.836,73.117,71.605,73.538,71.732,73.941L71.732,73.941z"/>
				</g>
			</g>
			<g>
				<g>
					<path fill="#B70327" d="M74.107,75.16c0.01,0.002,0.02,0.005,0.029,0.008c0.311,0.085,0.657-0.102,0.801-0.377
						c0.144-0.276,0.098-0.667-0.15-0.872c-0.008-0.007-0.016-0.013-0.022-0.02c-0.156-0.129-0.333-0.207-0.539-0.196
						c-0.259,0.013-0.498,0.165-0.617,0.396c-0.09,0.173-0.107,0.376-0.05,0.562C73.642,74.922,73.85,75.088,74.107,75.16
						L74.107,75.16z"/>
				</g>
			</g>
			<g>
				<g>
					<path fill="#B70327" d="M73.021,73.793c0.282-0.542-0.558-0.979-0.84-0.438S72.74,74.335,73.021,73.793L73.021,73.793z"/>
				</g>
			</g>
			<g>
				<g>
					<path fill="#B70327" d="M76.438,75.36c0.251-0.482-0.496-0.871-0.747-0.389C75.439,75.454,76.186,75.842,76.438,75.36
						L76.438,75.36z"/>
				</g>
			</g>
		</g>
	</g>
	<g>
		<g>
			<path fill="#D6142B" d="M59.924,56.485c0.168-0.151,0.353-0.267,0.533-0.401c0.197-0.146,0.41-0.277,0.568-0.464
				c0.131-0.155,0.191-0.307,0.257-0.499c0.063-0.192,0.072-0.604-0.035-0.776c-0.31-0.495-1.171-0.929-1.739,0.162
				c-0.008,0.016-0.024,0.025-0.041,0.025l0,0c-0.018,0-0.033-0.01-0.041-0.025c-0.569-1.09-1.431-0.657-1.74-0.162
				c-0.106,0.171-0.099,0.584-0.034,0.776c0.065,0.191,0.126,0.344,0.256,0.499c0.159,0.187,0.371,0.318,0.568,0.464
				c0.181,0.135,0.365,0.25,0.533,0.401c0.084,0.076,0.458,0.479,0.458,0.479S59.841,56.562,59.924,56.485z"/>
		</g>
	</g>
	<g>
		<g>
			<path fill="#D6142B" d="M89.394,93.426c-0.168,0.15-0.353,0.268-0.533,0.4c-0.198,0.146-0.409,0.277-0.567,0.465
				c-0.132,0.154-0.192,0.307-0.257,0.498c-0.065,0.191-0.072,0.605,0.035,0.775c0.309,0.496,1.171,0.93,1.738-0.16
				c0.009-0.016,0.024-0.025,0.041-0.025h0.001c0.017,0,0.033,0.01,0.04,0.025c0.568,1.09,1.431,0.656,1.739,0.16
				c0.107-0.17,0.1-0.584,0.035-0.775c-0.065-0.191-0.125-0.344-0.256-0.498c-0.159-0.188-0.371-0.318-0.568-0.465
				c-0.182-0.133-0.366-0.25-0.533-0.4c-0.084-0.076-0.458-0.479-0.458-0.479S89.478,93.35,89.394,93.426z"/>
		</g>
	</g>
	<g>
		<path fill="#D6142B" d="M60.647,46.771v3.995c0,0.697-0.158,1.184-0.473,1.458c-0.314,0.276-0.73,0.413-1.25,0.413
			c-0.278,0-0.558-0.039-0.839-0.118V51.93c0.275,0.059,0.525,0.088,0.75,0.088c0.321,0,0.557-0.047,0.708-0.143
			c0.15-0.096,0.253-0.219,0.305-0.371s0.078-0.397,0.078-0.737v-3.996H60.647z"/>
	</g>
	<g>
		<path fill="#D6142B" d="M88.63,103.066V99.07c0-0.695,0.157-1.182,0.472-1.457s0.73-0.414,1.25-0.414
			c0.278,0,0.558,0.039,0.839,0.117v0.59c-0.275-0.059-0.524-0.088-0.75-0.088c-0.32,0-0.556,0.049-0.708,0.143
			c-0.151,0.098-0.253,0.221-0.305,0.371c-0.052,0.152-0.078,0.398-0.078,0.738v3.996H88.63z"/>
	</g>
	<g>
		<g>
			<g>
				<path fill="#D6142B" d="M71.01,102.889H60.367c-1.656,0-3.003-1.432-3.003-3.191V59.435h0.188v40.262
					c0,1.656,1.263,3.004,2.815,3.004H71.01V102.889z"/>
			</g>
		</g>
		<g>
			<g>
				<rect x="79.56" y="102.701" fill="#D6142B" width="7.393" height="0.188"/>
			</g>
		</g>
		<g>
			<g>
				<path fill="#D6142B" d="M91.912,90.6h-0.188v-40.46c0-1.656-1.263-3.003-2.815-3.003H77.935v-0.187h10.975
					c1.656,0,3.003,1.431,3.003,3.19V90.6z"/>
			</g>
		</g>
		<g>
			<g>
				<rect x="62.619" y="46.949" fill="#D6142B" width="6.841" height="0.187"/>
			</g>
		</g>
	</g>
</g>
</svg>
