<?xml version="1.0" encoding="utf-8"?>
<!-- Generator: Adobe Illustrator 16.0.3, SVG Export Plug-In . SVG Version: 6.00 Build 0)  -->
<!DOCTYPE svg PUBLIC "-//W3C//DTD SVG 1.1//EN" "http://www.w3.org/Graphics/SVG/1.1/DTD/svg11.dtd">
<svg version="1.1" id="Capa_1" xmlns="http://www.w3.org/2000/svg" xmlns:xlink="http://www.w3.org/1999/xlink" x="0px" y="0px"
	 width="150px" height="150px" viewBox="0 0 150 150" enable-background="new 0 0 150 150" xml:space="preserve">
<g>
	<g>
		<path fill="#FFFFFF" d="M92.042,105.961H58.196c-1.904,0-3.448-1.545-3.448-3.45V47.31c0-1.905,1.544-3.449,3.448-3.449h33.846
			c1.905,0,3.449,1.544,3.449,3.449v55.201C95.491,104.416,93.947,105.961,92.042,105.961z"/>
		<path fill="#2D2D2D" d="M92.042,106.054H58.197c-1.954,0-3.544-1.589-3.544-3.543V47.31c0-1.954,1.59-3.543,3.544-3.543h33.845
			c1.954,0,3.543,1.589,3.543,3.543v55.201C95.585,104.465,93.996,106.054,92.042,106.054z M58.197,43.954
			c-1.852,0-3.356,1.505-3.356,3.356v55.201c0,1.851,1.505,3.356,3.356,3.356h33.845c1.851,0,3.356-1.506,3.356-3.356V47.31
			c0-1.851-1.506-3.356-3.356-3.356H58.197z"/>
	</g>
	<g>
		<g>
			<g>
				<path fill="#0F0A35" d="M60.078,55.535c0.001,0.101-0.041,0.245-0.04,0.346c0,0.102,0.001,0.204,0.012,0.306
					c0.038,0.346,0.162,0.677,0.422,0.909c-0.234,0.014-0.825,0.014-1.061,0c0.261-0.232,0.385-0.563,0.423-0.909
					c0.011-0.102,0.011-0.204,0.012-0.306c0-0.101-0.041-0.245-0.041-0.346H60.078z"/>
			</g>
		</g>
		<g>
			<g>
				<path fill="#0F0A35" d="M60.007,55.786c0.1,0.015,0.156,0.11,0.336,0.305c0.163,0.176,0.323,0.364,0.69,0.409
					c0.187,0.023,0.436-0.078,0.549-0.229c0.095-0.128,0.148-0.282,0.189-0.437c0.075-0.29,0.048-0.577-0.096-0.841
					c-0.142-0.262-0.525-0.378-0.763-0.236c-0.126,0.076-0.168,0.168-0.283,0.189c-0.036,0.007-0.066-0.027-0.058-0.063
					c0.047-0.178,0.172-0.198,0.23-0.41c0.07-0.25,0.108-0.444-0.248-0.758c-0.272-0.24-0.937-0.217-1.224,0
					c-0.292,0.222-0.32,0.425-0.251,0.675c0.055,0.197,0.168,0.287,0.221,0.454c0.018,0.056-0.037,0.111-0.092,0.088
					c-0.084-0.034-0.131-0.111-0.239-0.176c-0.236-0.142-0.62-0.026-0.763,0.236c-0.143,0.264-0.17,0.551-0.095,0.841
					c0.041,0.155,0.094,0.309,0.189,0.437c0.112,0.15,0.362,0.251,0.549,0.229c0.367-0.045,0.527-0.233,0.69-0.409
					c0.18-0.195,0.236-0.29,0.336-0.305H60.007z"/>
			</g>
		</g>
	</g>
	<g>
		<path fill="#0F0A35" d="M58.938,49.527c-0.727-0.317-1.091-0.777-1.091-1.38c0-0.437,0.182-0.797,0.544-1.079
			c0.362-0.282,0.842-0.423,1.439-0.423c0.591,0,1.059,0.135,1.407,0.406c0.348,0.271,0.521,0.625,0.521,1.063
			c0,0.608-0.372,1.045-1.115,1.309c0.601,0.278,0.978,0.547,1.13,0.806c0.154,0.259,0.23,0.518,0.23,0.776
			c0,0.461-0.196,0.848-0.588,1.159c-0.392,0.311-0.923,0.466-1.594,0.466c-0.716,0-1.271-0.158-1.663-0.475
			c-0.394-0.316-0.591-0.692-0.591-1.129C57.568,50.376,58.025,49.876,58.938,49.527z M59.729,49.833
			c-0.972,0.231-1.457,0.638-1.457,1.22c0,0.304,0.133,0.552,0.397,0.745c0.266,0.193,0.656,0.289,1.173,0.289
			c0.438,0,0.791-0.094,1.058-0.283s0.4-0.429,0.4-0.721C61.301,50.522,60.776,50.105,59.729,49.833z M59.811,49.171
			c0.482-0.129,0.823-0.277,1.022-0.446c0.199-0.168,0.299-0.379,0.299-0.631c0-0.295-0.119-0.519-0.356-0.672
			c-0.237-0.153-0.549-0.229-0.937-0.229c-0.371,0-0.674,0.081-0.909,0.242c-0.236,0.162-0.354,0.378-0.354,0.651
			c0,0.27,0.131,0.502,0.394,0.699C59.232,48.981,59.512,49.11,59.811,49.171z"/>
	</g>
	<g>
		<g>
			<g>
				<g>
					<path fill="#0F0A35" d="M90.144,94.285c0-0.1,0.041-0.244,0.041-0.346s-0.001-0.203-0.012-0.305
						c-0.038-0.347-0.162-0.677-0.422-0.909c0.234-0.014,0.824-0.014,1.06,0c-0.26,0.232-0.384,0.563-0.422,0.909
						c-0.011,0.102-0.012,0.203-0.012,0.305s0.04,0.246,0.04,0.346H90.144z"/>
				</g>
			</g>
			<g>
				<g>
					<path fill="#0F0A35" d="M90.216,94.034c-0.1-0.015-0.156-0.11-0.336-0.306c-0.163-0.176-0.323-0.363-0.69-0.408
						c-0.187-0.023-0.437,0.078-0.549,0.229c-0.096,0.127-0.148,0.283-0.189,0.437c-0.075,0.29-0.048,0.577,0.095,0.841
						c0.143,0.263,0.525,0.379,0.763,0.236c0.126-0.075,0.169-0.168,0.284-0.189c0.036-0.006,0.065,0.027,0.057,0.063
						c-0.046,0.178-0.171,0.199-0.23,0.41c-0.069,0.25-0.108,0.443,0.249,0.758c0.272,0.24,0.937,0.217,1.223,0
						c0.293-0.223,0.32-0.424,0.252-0.675c-0.056-0.196-0.168-0.286-0.221-0.453c-0.018-0.057,0.037-0.111,0.091-0.089
						c0.085,0.033,0.132,0.111,0.24,0.176c0.236,0.143,0.62,0.026,0.762-0.236c0.144-0.264,0.171-0.551,0.095-0.841
						c-0.04-0.153-0.094-0.31-0.189-0.437c-0.112-0.15-0.361-0.252-0.549-0.229c-0.366,0.045-0.527,0.232-0.69,0.408
						c-0.179,0.195-0.236,0.291-0.335,0.306H90.216z"/>
				</g>
			</g>
		</g>
		<g>
			<path fill="#0F0A35" d="M91.131,100.293c0.728,0.316,1.091,0.777,1.091,1.381c0,0.438-0.181,0.797-0.544,1.078
				c-0.361,0.283-0.842,0.424-1.439,0.424c-0.59,0-1.059-0.137-1.406-0.406c-0.349-0.271-0.523-0.625-0.523-1.063
				c0-0.609,0.373-1.045,1.117-1.309c-0.602-0.279-0.978-0.547-1.131-0.807c-0.153-0.258-0.229-0.518-0.229-0.775
				c0-0.462,0.195-0.848,0.587-1.158c0.392-0.313,0.923-0.467,1.594-0.467c0.716,0,1.271,0.158,1.663,0.475
				c0.394,0.316,0.591,0.693,0.591,1.129C92.5,99.445,92.043,99.943,91.131,100.293z M90.339,99.987
				c0.972-0.23,1.457-0.638,1.457-1.22c0-0.303-0.132-0.551-0.397-0.744c-0.266-0.192-0.656-0.289-1.173-0.289
				c-0.438,0-0.79,0.095-1.057,0.283c-0.268,0.188-0.4,0.428-0.4,0.721C88.769,99.299,89.292,99.715,90.339,99.987z M90.259,100.648
				c-0.482,0.129-0.823,0.278-1.022,0.447c-0.2,0.168-0.3,0.379-0.3,0.631c0,0.295,0.119,0.52,0.356,0.672s0.549,0.229,0.937,0.229
				c0.371,0,0.674-0.081,0.91-0.242s0.354-0.378,0.354-0.65c0-0.27-0.132-0.503-0.394-0.699
				C90.837,100.84,90.557,100.711,90.259,100.648z"/>
		</g>
	</g>
	<g>
		<g>
			<g>
				<path fill="#0F0A35" d="M75.004,63.971c0,0.258,0.104,0.626,0.104,0.884c0,0.261-0.001,0.522-0.03,0.781
					c-0.097,0.886-0.414,1.73-1.079,2.323c0.602,0.036,2.11,0.036,2.711,0c-0.664-0.593-0.982-1.438-1.079-2.323
					c-0.028-0.259-0.029-0.52-0.03-0.781c0-0.258,0.104-0.626,0.104-0.884H75.004z"/>
			</g>
		</g>
		<g>
			<g>
				<path fill="#0F0A35" d="M75.187,64.614c-0.253,0.039-0.396,0.28-0.857,0.779c-0.416,0.45-0.828,0.93-1.766,1.045
					c-0.477,0.058-1.114-0.199-1.401-0.584c-0.245-0.327-0.381-0.722-0.484-1.117c-0.194-0.742-0.123-1.476,0.243-2.15
					c0.363-0.67,1.343-0.966,1.947-0.604c0.324,0.194,0.431,0.43,0.728,0.485c0.092,0.017,0.169-0.07,0.146-0.16
					c-0.119-0.454-0.439-0.508-0.589-1.047c-0.179-0.639-0.276-1.135,0.635-1.937c0.697-0.613,2.393-0.555,3.126,0
					c0.749,0.567,0.82,1.085,0.642,1.724c-0.14,0.504-0.428,0.733-0.562,1.159c-0.046,0.144,0.094,0.284,0.234,0.227
					c0.216-0.087,0.333-0.285,0.611-0.451c0.605-0.362,1.584-0.066,1.947,0.604c0.366,0.674,0.438,1.408,0.243,2.15
					c-0.104,0.395-0.239,0.79-0.483,1.117c-0.287,0.385-0.926,0.642-1.402,0.584c-0.938-0.116-1.349-0.595-1.766-1.045
					c-0.461-0.499-0.604-0.741-0.857-0.779H75.187z"/>
			</g>
		</g>
	</g>
	<g>
		<g>
			<g>
				<path fill="#0F0A35" d="M75.004,86.111c0-0.259,0.104-0.627,0.104-0.885c0-0.261-0.001-0.521-0.03-0.781
					c-0.097-0.885-0.414-1.729-1.079-2.322c0.602-0.036,2.11-0.036,2.711,0c-0.664,0.593-0.982,1.438-1.079,2.322
					c-0.028,0.26-0.029,0.521-0.03,0.781c0,0.258,0.104,0.626,0.104,0.885H75.004z"/>
			</g>
		</g>
		<g>
			<g>
				<path fill="#0F0A35" d="M75.187,85.468c-0.253-0.04-0.396-0.28-0.857-0.779c-0.416-0.45-0.828-0.931-1.766-1.045
					c-0.477-0.06-1.114,0.198-1.401,0.583c-0.245,0.326-0.381,0.723-0.484,1.117c-0.194,0.742-0.123,1.476,0.243,2.15
					c0.363,0.67,1.343,0.965,1.947,0.604c0.324-0.193,0.431-0.43,0.728-0.484c0.092-0.018,0.169,0.069,0.146,0.159
					c-0.119,0.454-0.439,0.508-0.589,1.048c-0.179,0.639-0.276,1.135,0.635,1.937c0.697,0.613,2.393,0.556,3.126,0
					c0.749-0.567,0.82-1.085,0.642-1.724c-0.14-0.504-0.428-0.734-0.562-1.16c-0.046-0.144,0.094-0.283,0.234-0.227
					c0.216,0.087,0.333,0.285,0.611,0.451c0.605,0.361,1.584,0.066,1.947-0.604c0.366-0.675,0.438-1.408,0.243-2.15
					c-0.104-0.395-0.239-0.791-0.483-1.117c-0.287-0.385-0.926-0.643-1.402-0.583c-0.938,0.114-1.349,0.595-1.766,1.045
					c-0.461,0.499-0.604,0.739-0.857,0.779H75.187z"/>
			</g>
		</g>
	</g>
	<g>
		<g>
			<g>
				<g>
					<path fill="#0F0A35" d="M68.306,52.595c0,0.257,0.104,0.625,0.103,0.883c0,0.261-0.001,0.522-0.029,0.781
						c-0.097,0.886-0.415,1.729-1.079,2.323c0.601,0.036,2.11,0.036,2.71,0c-0.664-0.594-0.981-1.438-1.079-2.323
						c-0.028-0.259-0.028-0.521-0.029-0.781c0-0.258,0.104-0.626,0.103-0.883H68.306z"/>
				</g>
			</g>
			<g>
				<g>
					<path fill="#0F0A35" d="M68.488,53.238c-0.253,0.039-0.396,0.281-0.857,0.779c-0.416,0.451-0.828,0.93-1.767,1.045
						c-0.477,0.059-1.113-0.199-1.401-0.584c-0.244-0.327-0.381-0.722-0.483-1.117c-0.194-0.742-0.123-1.476,0.242-2.15
						c0.363-0.67,1.343-0.966,1.948-0.604c0.323,0.193,0.431,0.43,0.728,0.485c0.091,0.017,0.169-0.07,0.146-0.16
						c-0.119-0.454-0.439-0.508-0.59-1.047c-0.178-0.639-0.275-1.135,0.635-1.937c0.697-0.614,2.394-0.555,3.127,0
						c0.748,0.567,0.82,1.085,0.643,1.724c-0.141,0.503-0.429,0.733-0.563,1.159c-0.045,0.145,0.095,0.284,0.234,0.227
						c0.216-0.087,0.334-0.285,0.612-0.451c0.605-0.362,1.584-0.066,1.948,0.604c0.365,0.674,0.437,1.408,0.242,2.15
						c-0.104,0.395-0.24,0.79-0.483,1.117c-0.288,0.385-0.925,0.643-1.402,0.584c-0.938-0.116-1.35-0.594-1.766-1.045
						c-0.461-0.499-0.604-0.74-0.857-0.779H68.488z"/>
				</g>
			</g>
		</g>
		<g>
			<g>
				<g>
					<path fill="#0F0A35" d="M81.234,52.595c0,0.257,0.104,0.625,0.103,0.883c0,0.261-0.001,0.522-0.029,0.781
						c-0.098,0.886-0.414,1.729-1.079,2.323c0.602,0.036,2.109,0.036,2.711,0c-0.664-0.594-0.982-1.438-1.08-2.323
						c-0.027-0.259-0.028-0.521-0.028-0.781c-0.001-0.258,0.103-0.626,0.103-0.883H81.234z"/>
				</g>
			</g>
			<g>
				<g>
					<path fill="#0F0A35" d="M81.417,53.238c-0.254,0.039-0.396,0.281-0.857,0.779c-0.416,0.451-0.828,0.93-1.766,1.045
						c-0.477,0.059-1.114-0.199-1.402-0.584c-0.244-0.327-0.38-0.722-0.483-1.117c-0.194-0.742-0.123-1.476,0.242-2.15
						c0.364-0.67,1.344-0.966,1.948-0.604c0.323,0.193,0.43,0.43,0.728,0.485c0.091,0.017,0.169-0.07,0.145-0.16
						c-0.118-0.454-0.438-0.508-0.589-1.047c-0.178-0.639-0.275-1.135,0.636-1.937c0.696-0.614,2.394-0.555,3.126,0
						c0.749,0.567,0.82,1.085,0.643,1.724c-0.14,0.503-0.429,0.733-0.563,1.159c-0.046,0.145,0.094,0.284,0.233,0.227
						c0.216-0.087,0.334-0.285,0.612-0.451c0.604-0.362,1.585-0.066,1.948,0.604c0.365,0.674,0.437,1.408,0.243,2.15
						c-0.104,0.395-0.241,0.79-0.484,1.117c-0.288,0.385-0.926,0.643-1.402,0.584c-0.938-0.116-1.35-0.594-1.767-1.045
						c-0.46-0.499-0.604-0.74-0.856-0.779H81.417z"/>
				</g>
			</g>
		</g>
	</g>
	<g>
		<g>
			<g>
				<g>
					<path fill="#0F0A35" d="M68.306,75.445c0,0.258,0.104,0.626,0.103,0.884c0,0.261-0.001,0.522-0.029,0.78
						c-0.097,0.887-0.415,1.73-1.079,2.324c0.601,0.035,2.11,0.035,2.71,0c-0.664-0.594-0.981-1.438-1.079-2.324
						c-0.028-0.258-0.028-0.52-0.029-0.78c0-0.258,0.104-0.626,0.103-0.884H68.306z"/>
				</g>
			</g>
			<g>
				<g>
					<path fill="#0F0A35" d="M68.488,76.088c-0.253,0.039-0.396,0.281-0.857,0.779c-0.416,0.451-0.828,0.93-1.767,1.045
						c-0.477,0.06-1.113-0.198-1.401-0.583c-0.244-0.327-0.381-0.722-0.483-1.117c-0.194-0.742-0.123-1.476,0.242-2.15
						c0.363-0.67,1.343-0.965,1.948-0.604c0.323,0.193,0.431,0.43,0.728,0.485c0.091,0.017,0.169-0.07,0.146-0.16
						c-0.119-0.454-0.439-0.508-0.59-1.047c-0.178-0.639-0.275-1.135,0.635-1.937c0.697-0.613,2.394-0.555,3.127,0
						c0.748,0.567,0.82,1.085,0.643,1.724c-0.141,0.504-0.429,0.734-0.563,1.159c-0.045,0.145,0.095,0.284,0.234,0.227
						c0.216-0.087,0.334-0.285,0.612-0.451c0.605-0.361,1.584-0.066,1.948,0.604c0.365,0.674,0.437,1.408,0.242,2.15
						c-0.104,0.396-0.24,0.79-0.483,1.117c-0.288,0.385-0.925,0.643-1.402,0.583c-0.938-0.115-1.35-0.594-1.766-1.045
						c-0.461-0.498-0.604-0.74-0.857-0.779H68.488z"/>
				</g>
			</g>
		</g>
		<g>
			<g>
				<g>
					<path fill="#0F0A35" d="M81.234,75.445c0,0.258,0.104,0.626,0.103,0.884c0,0.261-0.001,0.522-0.029,0.78
						c-0.098,0.887-0.414,1.73-1.079,2.324c0.602,0.035,2.109,0.035,2.711,0c-0.664-0.594-0.982-1.438-1.08-2.324
						c-0.027-0.258-0.028-0.52-0.028-0.78c-0.001-0.258,0.103-0.626,0.103-0.884H81.234z"/>
				</g>
			</g>
			<g>
				<g>
					<path fill="#0F0A35" d="M81.417,76.088c-0.254,0.039-0.396,0.281-0.857,0.779c-0.416,0.451-0.828,0.93-1.766,1.045
						c-0.477,0.06-1.114-0.198-1.402-0.583c-0.244-0.327-0.38-0.722-0.483-1.117c-0.194-0.742-0.123-1.476,0.242-2.15
						c0.364-0.67,1.344-0.965,1.948-0.604c0.323,0.193,0.43,0.43,0.728,0.485c0.091,0.017,0.169-0.07,0.145-0.16
						c-0.118-0.454-0.438-0.508-0.589-1.047c-0.178-0.639-0.275-1.135,0.636-1.937c0.696-0.613,2.394-0.555,3.126,0
						c0.749,0.567,0.82,1.085,0.643,1.724c-0.14,0.504-0.429,0.734-0.563,1.159c-0.046,0.145,0.094,0.284,0.233,0.227
						c0.216-0.087,0.334-0.285,0.612-0.451c0.604-0.361,1.585-0.066,1.948,0.604c0.365,0.674,0.437,1.408,0.243,2.15
						c-0.104,0.396-0.241,0.79-0.484,1.117c-0.288,0.385-0.926,0.643-1.402,0.583c-0.938-0.115-1.35-0.594-1.767-1.045
						c-0.46-0.498-0.604-0.74-0.856-0.779H81.417z"/>
				</g>
			</g>
		</g>
	</g>
	<g>
		<g>
			<g>
				<g>
					<path fill="#0F0A35" d="M81.934,97.225c0-0.258-0.104-0.625-0.103-0.883c0-0.262,0.001-0.521,0.028-0.781
						c0.098-0.885,0.416-1.73,1.08-2.323c-0.602-0.036-2.109-0.036-2.711,0c0.665,0.593,0.981,1.438,1.079,2.323
						c0.028,0.26,0.029,0.52,0.029,0.781c0.001,0.258-0.103,0.625-0.103,0.883H81.934z"/>
				</g>
			</g>
			<g>
				<g>
					<path fill="#0F0A35" d="M81.751,96.582c0.253-0.039,0.396-0.279,0.856-0.779c0.417-0.45,0.828-0.93,1.767-1.045
						c0.477-0.059,1.114,0.199,1.402,0.584c0.243,0.326,0.38,0.722,0.484,1.117c0.193,0.741,0.122,1.476-0.243,2.15
						c-0.363,0.67-1.344,0.965-1.948,0.604c-0.324-0.193-0.431-0.43-0.728-0.484c-0.092-0.018-0.168,0.069-0.145,0.159
						c0.118,0.454,0.438,0.507,0.589,1.048c0.178,0.639,0.275,1.135-0.636,1.936c-0.696,0.614-2.394,0.557-3.127,0
						c-0.748-0.566-0.819-1.084-0.642-1.724c0.141-0.503,0.429-0.733,0.563-1.159c0.046-0.145-0.094-0.284-0.233-0.227
						c-0.216,0.087-0.334,0.285-0.612,0.451c-0.604,0.361-1.584,0.066-1.948-0.604c-0.365-0.675-0.437-1.409-0.242-2.15
						c0.104-0.396,0.239-0.791,0.483-1.117c0.288-0.385,0.926-0.643,1.402-0.584c0.938,0.115,1.35,0.595,1.766,1.045
						c0.461,0.5,0.604,0.74,0.857,0.779H81.751z"/>
				</g>
			</g>
		</g>
		<g>
			<g>
				<g>
					<path fill="#0F0A35" d="M69.004,97.225c0.001-0.258-0.103-0.625-0.103-0.883c0.001-0.262,0.001-0.521,0.029-0.781
						c0.098-0.885,0.415-1.73,1.079-2.323c-0.6-0.036-2.109-0.036-2.71,0c0.664,0.593,0.982,1.438,1.079,2.323
						c0.029,0.26,0.029,0.52,0.029,0.781c0.001,0.258-0.103,0.625-0.103,0.883H69.004z"/>
				</g>
			</g>
			<g>
				<g>
					<path fill="#0F0A35" d="M68.822,96.582c0.253-0.039,0.396-0.279,0.857-0.779c0.416-0.45,0.827-0.93,1.766-1.045
						c0.478-0.059,1.114,0.199,1.402,0.584c0.243,0.326,0.38,0.722,0.483,1.117c0.194,0.741,0.123,1.476-0.242,2.15
						c-0.364,0.67-1.343,0.965-1.948,0.604c-0.324-0.193-0.431-0.43-0.727-0.484c-0.092-0.018-0.169,0.069-0.146,0.159
						c0.12,0.454,0.439,0.507,0.59,1.048c0.178,0.639,0.274,1.135-0.636,1.936c-0.696,0.614-2.394,0.557-3.126,0
						c-0.749-0.566-0.82-1.084-0.643-1.724c0.14-0.503,0.429-0.733,0.563-1.159c0.045-0.145-0.094-0.284-0.234-0.227
						c-0.216,0.087-0.333,0.285-0.611,0.451c-0.605,0.361-1.585,0.066-1.948-0.604c-0.365-0.675-0.437-1.409-0.242-2.15
						c0.103-0.396,0.239-0.791,0.483-1.117c0.288-0.385,0.925-0.643,1.401-0.584c0.938,0.115,1.351,0.595,1.767,1.045
						c0.461,0.5,0.604,0.74,0.857,0.779H68.822z"/>
				</g>
			</g>
		</g>
	</g>
</g>
</svg>
