<?xml version="1.0" encoding="utf-8"?>
<!-- Generator: Adobe Illustrator 16.0.3, SVG Export Plug-In . SVG Version: 6.00 Build 0)  -->
<!DOCTYPE svg PUBLIC "-//W3C//DTD SVG 1.1//EN" "http://www.w3.org/Graphics/SVG/1.1/DTD/svg11.dtd">
<svg version="1.1" id="Capa_1" xmlns="http://www.w3.org/2000/svg" xmlns:xlink="http://www.w3.org/1999/xlink" x="0px" y="0px"
	 width="105px" height="150px" viewBox="0 0 105 150" enable-background="new 0 0 105 150" xml:space="preserve">
<g>
	<g>
		<path fill="#FFFFFF" d="M91.033,144.502H14.25c-4.317,0-7.819-3.505-7.819-7.829V11.45c0-4.323,3.502-7.825,7.819-7.825h76.783
			c4.321,0,7.823,3.502,7.823,7.825v125.223C98.856,140.997,95.354,144.502,91.033,144.502z"/>
		<path fill="#2D2D2D" d="M91.033,144.715H14.254c-4.433,0-8.042-3.607-8.042-8.042V11.45c0-4.433,3.609-8.038,8.042-8.038h76.779
			c4.432,0,8.036,3.604,8.036,8.038v125.223C99.069,141.107,95.465,144.715,91.033,144.715z M14.254,3.837
			c-4.2,0-7.614,3.414-7.614,7.613v125.223c0,4.201,3.414,7.616,7.614,7.616h76.779c4.197,0,7.613-3.415,7.613-7.616V11.45
			c0-4.2-3.416-7.613-7.613-7.613H14.254z"/>
	</g>
	<g>
		<g>
			<g>
				<path fill="#100A35" d="M18.521,30.108c0.002,0.229-0.093,0.555-0.091,0.784c0,0.232,0.002,0.463,0.027,0.695
					c0.086,0.786,0.368,1.536,0.959,2.063c-0.532,0.031-1.874,0.031-2.408,0c0.592-0.526,0.873-1.277,0.959-2.063
					c0.026-0.231,0.026-0.463,0.026-0.695c0-0.229-0.093-0.556-0.093-0.784H18.521z"/>
			</g>
		</g>
		<g>
			<g>
				<path fill="#100A35" d="M18.36,30.678c0.228,0.033,0.354,0.249,0.762,0.691c0.37,0.4,0.733,0.826,1.566,0.928
					c0.426,0.052,0.988-0.177,1.245-0.519c0.215-0.291,0.337-0.639,0.43-0.992c0.168-0.658,0.106-1.309-0.22-1.907
					c-0.321-0.595-1.189-0.857-1.73-0.536c-0.286,0.172-0.381,0.381-0.643,0.429c-0.082,0.017-0.151-0.061-0.133-0.143
					c0.108-0.403,0.392-0.449,0.523-0.929c0.16-0.567,0.246-1.008-0.563-1.72c-0.616-0.544-2.124-0.492-2.775,0
					c-0.663,0.504-0.727,0.965-0.569,1.532c0.124,0.446,0.381,0.65,0.5,1.029c0.04,0.127-0.084,0.252-0.208,0.2
					c-0.19-0.078-0.296-0.252-0.543-0.4c-0.534-0.321-1.406-0.059-1.73,0.536c-0.323,0.598-0.386,1.25-0.217,1.908
					c0.093,0.351,0.215,0.701,0.429,0.991c0.255,0.34,0.822,0.569,1.246,0.52c0.833-0.102,1.196-0.529,1.566-0.928
					c0.408-0.442,0.534-0.658,0.762-0.691h0.301V30.678z"/>
			</g>
		</g>
	</g>
	<g>
		<path fill="#100A35" d="M15.934,16.479c-1.648-0.719-2.473-1.762-2.473-3.13c0-0.991,0.412-1.807,1.232-2.448
			c0.822-0.639,1.91-0.959,3.265-0.959c1.34,0,2.401,0.306,3.19,0.92c0.791,0.615,1.183,1.417,1.183,2.413
			c0,1.379-0.842,2.37-2.53,2.969c1.364,0.631,2.219,1.242,2.565,1.828c0.348,0.587,0.52,1.176,0.52,1.76
			c0,1.045-0.445,1.924-1.333,2.629c-0.889,0.706-2.094,1.058-3.618,1.058c-1.622,0-2.882-0.358-3.771-1.079
			c-0.895-0.716-1.343-1.569-1.343-2.561C12.828,18.405,13.865,17.271,15.934,16.479z M17.729,17.173
			c-2.204,0.524-3.305,1.448-3.305,2.768c0,0.689,0.301,1.252,0.901,1.689c0.605,0.439,1.489,0.656,2.661,0.656
			c0.992,0,1.794-0.212,2.401-0.641c0.605-0.429,0.906-0.974,0.906-1.636C21.295,18.736,20.103,17.79,17.729,17.173z M17.915,15.671
			c1.094-0.293,1.867-0.628,2.319-1.012c0.452-0.381,0.678-0.859,0.678-1.432c0-0.669-0.269-1.177-0.809-1.524
			c-0.536-0.347-1.245-0.52-2.124-0.52c-0.842,0-1.528,0.184-2.063,0.55c-0.536,0.368-0.801,0.857-0.801,1.476
			c0,0.613,0.296,1.139,0.895,1.586C16.603,15.241,17.237,15.533,17.915,15.671z"/>
	</g>
	<g>
		<g>
			<g>
				<g>
					<path fill="#100A35" d="M86.729,118.016c0-0.227,0.092-0.554,0.092-0.785c0-0.234-0.004-0.46-0.028-0.694
						c-0.087-0.785-0.368-1.533-0.957-2.062c0.53-0.03,1.87-0.03,2.403,0c-0.588,0.528-0.871,1.276-0.957,2.062
						c-0.023,0.234-0.025,0.46-0.025,0.694c0,0.231,0.09,0.559,0.09,0.785H86.729z"/>
				</g>
			</g>
			<g>
				<g>
					<path fill="#100A35" d="M86.89,117.444c-0.226-0.032-0.353-0.248-0.763-0.692c-0.369-0.403-0.732-0.823-1.565-0.926
						c-0.423-0.052-0.991,0.178-1.245,0.519c-0.217,0.288-0.334,0.643-0.428,0.993c-0.171,0.655-0.108,1.307,0.215,1.905
						c0.324,0.598,1.191,0.858,1.732,0.536c0.283-0.168,0.381-0.382,0.643-0.431c0.082-0.013,0.148,0.063,0.129,0.146
						c-0.103,0.403-0.386,0.448-0.521,0.93c-0.156,0.567-0.245,1.003,0.564,1.721c0.616,0.544,2.128,0.491,2.773,0
						c0.666-0.511,0.728-0.962,0.572-1.533c-0.127-0.444-0.381-0.647-0.5-1.028c-0.041-0.128,0.084-0.253,0.207-0.199
						c0.191,0.071,0.298,0.248,0.544,0.397c0.536,0.325,1.406,0.059,1.729-0.535c0.326-0.598,0.385-1.249,0.213-1.909
						c-0.088-0.347-0.213-0.705-0.428-0.993c-0.254-0.337-0.816-0.57-1.245-0.519c-0.831,0.103-1.194,0.528-1.565,0.926
						c-0.406,0.444-0.537,0.66-0.758,0.696H86.89V117.444z"/>
				</g>
			</g>
		</g>
		<g>
			<path fill="#100A35" d="M88.965,131.645c1.652,0.718,2.478,1.764,2.478,3.133c0,0.992-0.413,1.808-1.236,2.445
				c-0.819,0.643-1.91,0.962-3.266,0.962c-1.338,0-2.401-0.311-3.188-0.922c-0.792-0.616-1.186-1.418-1.186-2.41
				c0-1.383,0.847-2.37,2.532-2.969c-1.365-0.633-2.218-1.241-2.565-1.834c-0.349-0.586-0.521-1.175-0.521-1.755
				c0-1.051,0.443-1.927,1.334-2.628c0.889-0.709,2.093-1.059,3.615-1.059c1.624,0,2.884,0.358,3.772,1.076
				c0.893,0.719,1.341,1.573,1.341,2.561C92.071,129.722,91.035,130.851,88.965,131.645z M87.169,130.949
				c2.204-0.523,3.306-1.445,3.306-2.765c0-0.692-0.299-1.255-0.902-1.688c-0.603-0.438-1.486-0.656-2.658-0.656
				c-0.994,0-1.795,0.212-2.398,0.643c-0.609,0.426-0.907,0.971-0.907,1.635C83.608,129.39,84.793,130.333,87.169,130.949z
				 M86.986,132.45c-1.092,0.293-1.867,0.63-2.318,1.016c-0.453,0.38-0.678,0.859-0.678,1.431c0,0.669,0.27,1.179,0.806,1.524
				c0.536,0.341,1.245,0.518,2.127,0.518c0.842,0,1.528-0.186,2.064-0.55c0.534-0.362,0.802-0.858,0.802-1.475
				c0-0.611-0.301-1.138-0.895-1.586C88.299,132.886,87.662,132.593,86.986,132.45z"/>
		</g>
	</g>
	<g>
		<g>
			<g>
				<path fill="#100A35" d="M52.381,49.246c0,0.585,0.234,1.42,0.234,2.005c0,0.593,0,1.184-0.066,1.771
					c-0.222,2.01-0.939,3.924-2.448,5.271c1.367,0.08,4.787,0.08,6.15,0c-1.507-1.347-2.227-3.263-2.448-5.271
					c-0.063-0.587-0.067-1.179-0.067-1.771c0-0.585,0.235-1.42,0.235-2.005H52.381z"/>
			</g>
		</g>
		<g>
			<g>
				<path fill="#100A35" d="M52.797,50.705c-0.576,0.087-0.899,0.634-1.945,1.767c-0.944,1.02-1.879,2.11-4.005,2.371
					c-1.083,0.132-2.528-0.451-3.179-1.325c-0.556-0.742-0.864-1.638-1.096-2.534c-0.443-1.683-0.279-3.348,0.549-4.877
					c0.825-1.52,3.048-2.191,4.418-1.37c0.735,0.439,0.976,0.976,1.652,1.1c0.208,0.039,0.381-0.158,0.33-0.362
					c-0.27-1.03-0.995-1.153-1.335-2.376c-0.408-1.448-0.627-2.574,1.439-4.393c1.582-1.391,5.428-1.259,7.092,0
					c1.699,1.286,1.858,2.461,1.455,3.91c-0.316,1.143-0.971,1.664-1.273,2.63c-0.104,0.327,0.213,0.645,0.529,0.515
					c0.491-0.197,0.758-0.647,1.387-1.023c1.373-0.821,3.594-0.149,4.418,1.37c0.828,1.529,0.992,3.194,0.549,4.877
					c-0.234,0.896-0.541,1.792-1.094,2.534c-0.652,0.874-2.102,1.458-3.182,1.325c-2.127-0.264-3.061-1.351-4.006-2.371
					c-1.046-1.132-1.369-1.681-1.944-1.767H52.797z"/>
			</g>
		</g>
	</g>
	<g>
		<g>
			<g>
				<path fill="#100A35" d="M52.381,99.473c0-0.589,0.234-1.422,0.234-2.007c0-0.594,0-1.183-0.066-1.772
					c-0.222-2.007-0.939-3.926-2.448-5.268c1.367-0.084,4.787-0.084,6.15,0c-1.507,1.342-2.227,3.261-2.448,5.268
					c-0.063,0.59-0.067,1.179-0.067,1.772c0,0.585,0.235,1.418,0.235,2.007H52.381z"/>
			</g>
		</g>
		<g>
			<g>
				<path fill="#100A35" d="M52.797,98.011c-0.576-0.089-0.899-0.633-1.945-1.763c-0.944-1.024-1.879-2.114-4.005-2.371
					c-1.083-0.138-2.528,0.447-3.179,1.32c-0.556,0.74-0.864,1.64-1.096,2.534c-0.443,1.685-0.279,3.35,0.549,4.879
					c0.825,1.519,3.048,2.188,4.418,1.369c0.735-0.439,0.976-0.975,1.652-1.1c0.208-0.039,0.381,0.16,0.33,0.364
					c-0.27,1.027-0.995,1.151-1.335,2.374c-0.408,1.448-0.627,2.574,1.439,4.396c1.582,1.392,5.428,1.263,7.092,0
					c1.699-1.285,1.858-2.463,1.455-3.912c-0.316-1.143-0.971-1.666-1.273-2.633c-0.104-0.323,0.213-0.643,0.529-0.514
					c0.491,0.199,0.758,0.647,1.387,1.024c1.373,0.819,3.594,0.149,4.418-1.369c0.828-1.533,0.992-3.194,0.549-4.879
					c-0.234-0.895-0.541-1.794-1.094-2.534c-0.652-0.873-2.102-1.458-3.182-1.32c-2.127,0.257-3.061,1.347-4.006,2.371
					c-1.046,1.13-1.369,1.674-1.944,1.763H52.797L52.797,98.011z"/>
			</g>
		</g>
	</g>
	<g>
		<g>
			<g>
				<g>
					<path fill="#100A35" d="M37.188,23.439c0,0.583,0.234,1.418,0.232,2.002c0,0.593-0.002,1.185-0.066,1.771
						c-0.22,2.01-0.941,3.922-2.448,5.271c1.364,0.082,4.787,0.082,6.147,0c-1.504-1.348-2.226-3.262-2.448-5.271
						c-0.062-0.587-0.062-1.182-0.066-1.771c0-0.584,0.237-1.42,0.234-2.002H37.188z"/>
				</g>
			</g>
			<g>
				<g>
					<path fill="#100A35" d="M37.6,24.897c-0.576,0.088-0.899,0.638-1.945,1.768c-0.944,1.022-1.879,2.109-4.01,2.37
						c-1.081,0.134-2.523-0.452-3.177-1.325c-0.554-0.742-0.864-1.638-1.094-2.534c-0.441-1.683-0.279-3.349,0.549-4.877
						c0.822-1.52,3.044-2.19,4.418-1.37c0.732,0.438,0.979,0.976,1.652,1.1c0.204,0.039,0.381-0.159,0.33-0.362
						c-0.27-1.03-0.995-1.153-1.338-2.375c-0.405-1.449-0.623-2.575,1.44-4.393c1.581-1.394,5.43-1.26,7.093,0
						c1.697,1.286,1.861,2.461,1.46,3.91c-0.321,1.141-0.975,1.662-1.278,2.629c-0.102,0.329,0.215,0.645,0.529,0.515
						c0.492-0.197,0.758-0.647,1.391-1.023c1.372-0.82,3.594-0.149,4.418,1.37c0.828,1.529,0.992,3.195,0.549,4.877
						c-0.234,0.896-0.544,1.792-1.094,2.534c-0.656,0.873-2.101,1.459-3.182,1.325c-2.129-0.263-3.062-1.348-4.005-2.37
						c-1.046-1.132-1.371-1.679-1.944-1.768H37.6z"/>
				</g>
			</g>
		</g>
		<g>
			<g>
				<g>
					<path fill="#100A35" d="M66.516,23.439c0,0.583,0.234,1.418,0.232,2.002c0,0.593-0.003,1.185-0.064,1.771
						c-0.225,2.01-0.939,3.922-2.45,5.271c1.366,0.082,4.784,0.082,6.149,0c-1.506-1.348-2.227-3.262-2.45-5.271
						c-0.06-0.587-0.062-1.182-0.062-1.771c-0.002-0.584,0.234-1.42,0.234-2.002H66.516z"/>
				</g>
			</g>
			<g>
				<g>
					<path fill="#100A35" d="M66.93,24.897c-0.576,0.088-0.897,0.638-1.943,1.768c-0.943,1.022-1.879,2.109-4.008,2.37
						c-1.083,0.134-2.527-0.452-3.179-1.325c-0.554-0.742-0.864-1.638-1.097-2.534c-0.441-1.683-0.279-3.349,0.547-4.877
						c0.828-1.52,3.051-2.19,4.422-1.37c0.731,0.438,0.975,0.976,1.65,1.1c0.206,0.039,0.384-0.159,0.33-0.362
						c-0.27-1.03-0.994-1.153-1.338-2.375c-0.402-1.449-0.625-2.575,1.445-4.393c1.576-1.394,5.43-1.26,7.088,0
						c1.702,1.286,1.861,2.461,1.461,3.91c-0.317,1.141-0.973,1.662-1.279,2.629c-0.102,0.329,0.213,0.645,0.529,0.515
						c0.49-0.197,0.758-0.647,1.391-1.023c1.368-0.82,3.593-0.149,4.416,1.37c0.829,1.529,0.992,3.195,0.552,4.877
						c-0.234,0.896-0.547,1.792-1.097,2.534c-0.656,0.873-2.1,1.459-3.182,1.325c-2.126-0.263-3.061-1.348-4.009-2.37
						c-1.041-1.132-1.37-1.679-1.94-1.768H66.93z"/>
				</g>
			</g>
		</g>
	</g>
	<g>
		<g>
			<g>
				<g>
					<path fill="#100A35" d="M37.188,75.274c0,0.588,0.234,1.42,0.232,2.005c0,0.594-0.002,1.188-0.066,1.772
						c-0.22,2.012-0.941,3.921-2.448,5.272c1.364,0.075,4.787,0.075,6.147,0c-1.504-1.352-2.226-3.266-2.448-5.272
						c-0.062-0.584-0.062-1.183-0.066-1.772c0-0.585,0.237-1.417,0.234-2.005H37.188z"/>
				</g>
			</g>
			<g>
				<g>
					<path fill="#100A35" d="M37.6,76.734c-0.576,0.089-0.899,0.639-1.945,1.768c-0.944,1.023-1.879,2.109-4.01,2.371
						c-1.081,0.138-2.523-0.452-3.177-1.325c-0.554-0.739-0.864-1.635-1.094-2.534c-0.441-1.681-0.279-3.347,0.549-4.876
						c0.822-1.52,3.044-2.188,4.418-1.371c0.732,0.438,0.979,0.977,1.652,1.102c0.204,0.037,0.381-0.158,0.33-0.361
						c-0.27-1.033-0.995-1.154-1.338-2.377c-0.405-1.449-0.623-2.575,1.44-4.393c1.581-1.391,5.43-1.258,7.093,0
						c1.697,1.285,1.861,2.459,1.46,3.91c-0.321,1.143-0.975,1.664-1.278,2.63c-0.102,0.327,0.215,0.643,0.529,0.514
						c0.492-0.197,0.758-0.646,1.391-1.023c1.372-0.817,3.594-0.149,4.418,1.371c0.828,1.529,0.992,3.196,0.549,4.876
						c-0.234,0.899-0.544,1.795-1.094,2.534c-0.656,0.873-2.101,1.463-3.182,1.325c-2.129-0.262-3.062-1.348-4.005-2.371
						c-1.046-1.129-1.371-1.679-1.944-1.768H37.6z"/>
				</g>
			</g>
		</g>
		<g>
			<g>
				<g>
					<path fill="#100A35" d="M66.516,75.274c0,0.588,0.234,1.42,0.232,2.005c0,0.594-0.003,1.188-0.064,1.772
						c-0.225,2.012-0.939,3.921-2.45,5.272c1.366,0.075,4.784,0.075,6.149,0c-1.506-1.352-2.227-3.266-2.45-5.272
						c-0.06-0.584-0.062-1.183-0.062-1.772c-0.002-0.585,0.234-1.417,0.234-2.005H66.516z"/>
				</g>
			</g>
			<g>
				<g>
					<path fill="#100A35" d="M66.93,76.734c-0.576,0.089-0.897,0.639-1.943,1.768c-0.943,1.023-1.879,2.109-4.008,2.371
						c-1.083,0.138-2.527-0.452-3.179-1.325c-0.554-0.739-0.864-1.635-1.097-2.534c-0.441-1.681-0.279-3.347,0.547-4.876
						c0.828-1.52,3.051-2.188,4.422-1.371c0.731,0.438,0.975,0.977,1.65,1.102c0.206,0.037,0.384-0.158,0.33-0.361
						c-0.27-1.033-0.994-1.154-1.338-2.377c-0.402-1.449-0.625-2.575,1.445-4.393c1.576-1.391,5.43-1.258,7.088,0
						c1.702,1.285,1.861,2.459,1.461,3.91c-0.317,1.143-0.973,1.664-1.279,2.63c-0.102,0.327,0.213,0.643,0.529,0.514
						c0.49-0.197,0.758-0.646,1.391-1.023c1.368-0.817,3.593-0.149,4.416,1.371c0.829,1.529,0.992,3.196,0.552,4.876
						c-0.234,0.899-0.547,1.795-1.097,2.534c-0.656,0.873-2.1,1.463-3.182,1.325c-2.126-0.262-3.061-1.348-4.009-2.371
						c-1.041-1.129-1.37-1.679-1.94-1.768H66.93z"/>
				</g>
			</g>
		</g>
	</g>
	<g>
		<g>
			<g>
				<g>
					<path fill="#100A35" d="M68.102,124.684c0-0.584-0.235-1.418-0.232-2.003c0-0.594,0.002-1.183,0.063-1.772
						c0.222-2.007,0.944-3.926,2.45-5.268c-1.367-0.084-4.785-0.084-6.149,0c1.506,1.342,2.224,3.261,2.446,5.268
						c0.063,0.59,0.065,1.179,0.065,1.772c0.003,0.585-0.235,1.419-0.235,2.003H68.102z"/>
				</g>
			</g>
			<g>
				<g>
					<path fill="#100A35" d="M67.687,123.227c0.573-0.089,0.897-0.635,1.943-1.769c0.943-1.019,1.878-2.109,4.007-2.37
						c1.084-0.134,2.527,0.452,3.18,1.324c0.554,0.741,0.864,1.641,1.1,2.534c0.438,1.68,0.275,3.351-0.551,4.88
						c-0.823,1.519-3.051,2.188-4.422,1.368c-0.732-0.438-0.975-0.976-1.65-1.099c-0.207-0.04-0.381,0.155-0.33,0.363
						c0.271,1.027,0.995,1.147,1.339,2.374c0.403,1.449,0.624,2.575-1.444,4.392c-1.578,1.396-5.43,1.268-7.094,0
						c-1.697-1.281-1.857-2.459-1.456-3.908c0.321-1.144,0.973-1.666,1.278-2.632c0.104-0.328-0.212-0.643-0.529-0.514
						c-0.489,0.199-0.758,0.647-1.389,1.023c-1.369,0.819-3.594,0.15-4.418-1.368c-0.828-1.533-0.992-3.2-0.549-4.88
						c0.234-0.899,0.541-1.793,1.094-2.534c0.656-0.872,2.101-1.458,3.182-1.324c2.127,0.261,3.062,1.352,4.006,2.37
						c1.045,1.134,1.371,1.68,1.945,1.769H67.687z"/>
				</g>
			</g>
		</g>
		<g>
			<g>
				<g>
					<path fill="#100A35" d="M38.77,124.684c0.003-0.584-0.234-1.418-0.234-2.003c0.004-0.594,0.004-1.183,0.066-1.772
						c0.222-2.007,0.943-3.926,2.448-5.268c-1.36-0.084-4.783-0.084-6.147,0c1.506,1.342,2.228,3.261,2.448,5.268
						c0.066,0.59,0.066,1.179,0.066,1.772c0.002,0.585-0.232,1.419-0.232,2.003H38.77z"/>
				</g>
			</g>
			<g>
				<g>
					<path fill="#100A35" d="M38.358,123.227c0.574-0.089,0.897-0.635,1.945-1.769c0.944-1.019,1.875-2.109,4.005-2.37
						c1.083-0.134,2.525,0.452,3.181,1.324c0.55,0.741,0.859,1.641,1.094,2.534c0.439,1.68,0.279,3.351-0.549,4.88
						c-0.824,1.519-3.046,2.188-4.418,1.368c-0.735-0.438-0.979-0.976-1.65-1.099c-0.21-0.04-0.384,0.155-0.33,0.363
						c0.27,1.027,0.995,1.147,1.337,2.374c0.403,1.449,0.621,2.575-1.444,4.392c-1.578,1.396-5.43,1.268-7.089,0
						c-1.701-1.281-1.861-2.459-1.46-3.908c0.317-1.144,0.973-1.666,1.279-2.632c0.102-0.328-0.215-0.643-0.532-0.514
						c-0.492,0.199-0.756,0.647-1.387,1.023c-1.374,0.819-3.596,0.15-4.418-1.368c-0.828-1.533-0.992-3.2-0.549-4.88
						c0.232-0.899,0.54-1.793,1.094-2.534c0.653-0.872,2.101-1.458,3.18-1.324c2.126,0.261,3.063,1.352,4.007,2.37
						c1.046,1.134,1.369,1.68,1.945,1.769H38.358z"/>
				</g>
			</g>
		</g>
	</g>
</g>
</svg>
